<mxfile host="app.diagrams.net" modified="2022-10-07T18:06:11.592Z" agent="5.0 (Macintosh; Intel Mac OS X 10_15_7) AppleWebKit/537.36 (KHTML, like Gecko) Chrome/106.0.0.0 Safari/537.36" etag="IJSnYMmyMw33Mx8WO4yU" version="20.4.0" type="github" pages="4">
  <diagram id="0Vy0XNqQAgWcM_efRBp2" name="Everything Combined">
    <mxGraphModel dx="1554" dy="866" grid="1" gridSize="10" guides="1" tooltips="1" connect="1" arrows="1" fold="1" page="1" pageScale="1" pageWidth="850" pageHeight="1100" math="0" shadow="0">
      <root>
        <mxCell id="0" />
        <mxCell id="1" parent="0" />
        <mxCell id="6KDq_unp0hzbyiRueTE_-111" value="" style="endArrow=none;html=1;rounded=1;fontFamily=Helvetica;fontSize=12;fontColor=#FF3333;entryX=0.47;entryY=1.033;entryDx=0;entryDy=0;entryPerimeter=0;strokeWidth=7;strokeColor=#BDBDBD;startArrow=none;" parent="1" source="6KDq_unp0hzbyiRueTE_-89" target="6KDq_unp0hzbyiRueTE_-81" edge="1">
          <mxGeometry width="50" height="50" relative="1" as="geometry">
            <mxPoint x="1146.4077165202316" y="2085.0004257993733" as="sourcePoint" />
            <mxPoint x="1130" y="309.9999999999998" as="targetPoint" />
          </mxGeometry>
        </mxCell>
        <mxCell id="6KDq_unp0hzbyiRueTE_-108" value="" style="endArrow=none;html=1;rounded=1;fontFamily=Helvetica;fontSize=12;fontColor=#FF3333;entryX=0.47;entryY=1.033;entryDx=0;entryDy=0;entryPerimeter=0;strokeWidth=7;strokeColor=#BDBDBD;startArrow=none;" parent="1" source="6KDq_unp0hzbyiRueTE_-115" target="6KDq_unp0hzbyiRueTE_-77" edge="1">
          <mxGeometry width="50" height="50" relative="1" as="geometry">
            <mxPoint x="500" y="2440" as="sourcePoint" />
            <mxPoint x="490" y="310" as="targetPoint" />
          </mxGeometry>
        </mxCell>
        <mxCell id="6KDq_unp0hzbyiRueTE_-1" value="&lt;font face=&quot;Verdana&quot;&gt;&lt;b&gt;&lt;font style=&quot;font-size: 12px;&quot;&gt;Elentra Consortium&lt;/font&gt;&lt;/b&gt;&lt;br&gt;ElentraProject:elentra-1x-me&lt;br&gt;&lt;br&gt;consortium&lt;br&gt;&lt;/font&gt;" style="rounded=1;whiteSpace=wrap;html=1;strokeColor=#FF8000;strokeWidth=4;" parent="1" vertex="1">
          <mxGeometry x="90" y="190" width="200" height="120" as="geometry" />
        </mxCell>
        <mxCell id="6KDq_unp0hzbyiRueTE_-2" value="&lt;font face=&quot;Verdana&quot;&gt;&lt;b&gt;&lt;font style=&quot;font-size: 12px;&quot;&gt;Institutional Fork&lt;/font&gt;&lt;/b&gt;&lt;br&gt;DiscoveryCommons:elentra-1x-me&lt;br&gt;&lt;br&gt;upstream&lt;br&gt;&lt;/font&gt;" style="rounded=1;whiteSpace=wrap;html=1;strokeColor=#00CC66;strokeWidth=4;" parent="1" vertex="1">
          <mxGeometry x="370" y="190" width="230" height="120" as="geometry" />
        </mxCell>
        <mxCell id="6KDq_unp0hzbyiRueTE_-3" value="&lt;font face=&quot;Verdana&quot;&gt;&lt;b&gt;&lt;font style=&quot;font-size: 12px;&quot;&gt;Development&lt;/font&gt;&lt;/b&gt;&lt;br&gt;DiscoveryCommons:elentra-1x-me-dev&lt;br&gt;&lt;br&gt;origin&lt;br&gt;&lt;/font&gt;" style="rounded=1;whiteSpace=wrap;html=1;strokeColor=#3399FF;strokeWidth=4;" parent="1" vertex="1">
          <mxGeometry x="677" y="190" width="260" height="120" as="geometry" />
        </mxCell>
        <mxCell id="6KDq_unp0hzbyiRueTE_-4" value="&lt;font face=&quot;Verdana&quot;&gt;&lt;b&gt;&lt;font style=&quot;font-size: 12px;&quot;&gt;U of T Installation of Elentra&lt;/font&gt;&lt;/b&gt;&lt;br&gt;Servers managed by Central IT&lt;br&gt;&lt;/font&gt;" style="rounded=1;whiteSpace=wrap;html=1;strokeColor=#6600CC;strokeWidth=4;" parent="1" vertex="1">
          <mxGeometry x="1000" y="190" width="260" height="120" as="geometry" />
        </mxCell>
        <mxCell id="6KDq_unp0hzbyiRueTE_-5" value="" style="endArrow=none;html=1;rounded=1;fontFamily=Helvetica;fontSize=12;fontColor=#FF3333;entryX=0.47;entryY=1.033;entryDx=0;entryDy=0;entryPerimeter=0;strokeWidth=7;strokeColor=#BDBDBD;" parent="1" target="6KDq_unp0hzbyiRueTE_-1" edge="1">
          <mxGeometry width="50" height="50" relative="1" as="geometry">
            <mxPoint x="190" y="2440" as="sourcePoint" />
            <mxPoint x="330" y="500" as="targetPoint" />
          </mxGeometry>
        </mxCell>
        <mxCell id="6KDq_unp0hzbyiRueTE_-6" value="" style="endArrow=none;html=1;rounded=1;fontFamily=Helvetica;fontSize=12;fontColor=#FF3333;entryX=0.47;entryY=1.033;entryDx=0;entryDy=0;entryPerimeter=0;strokeWidth=7;strokeColor=#BDBDBD;startArrow=none;" parent="1" source="6KDq_unp0hzbyiRueTE_-77" edge="1">
          <mxGeometry width="50" height="50" relative="1" as="geometry">
            <mxPoint x="500" y="2440" as="sourcePoint" />
            <mxPoint x="490" y="310.00000000000006" as="targetPoint" />
          </mxGeometry>
        </mxCell>
        <mxCell id="6KDq_unp0hzbyiRueTE_-7" value="" style="endArrow=none;html=1;rounded=1;fontFamily=Helvetica;fontSize=12;fontColor=#FF3333;entryX=0.47;entryY=1.033;entryDx=0;entryDy=0;entryPerimeter=0;strokeWidth=7;strokeColor=#BDBDBD;startArrow=none;" parent="1" source="6KDq_unp0hzbyiRueTE_-14" edge="1">
          <mxGeometry width="50" height="50" relative="1" as="geometry">
            <mxPoint x="810" y="1076.04" as="sourcePoint" />
            <mxPoint x="804" y="310" as="targetPoint" />
          </mxGeometry>
        </mxCell>
        <mxCell id="6KDq_unp0hzbyiRueTE_-8" value="" style="endArrow=none;html=1;rounded=1;fontFamily=Helvetica;fontSize=12;fontColor=#FF3333;entryX=0.47;entryY=1.033;entryDx=0;entryDy=0;entryPerimeter=0;strokeWidth=7;strokeColor=#BDBDBD;startArrow=none;" parent="1" source="6KDq_unp0hzbyiRueTE_-81" edge="1">
          <mxGeometry width="50" height="50" relative="1" as="geometry">
            <mxPoint x="1140" y="2120" as="sourcePoint" />
            <mxPoint x="1130" y="310" as="targetPoint" />
          </mxGeometry>
        </mxCell>
        <mxCell id="6KDq_unp0hzbyiRueTE_-9" value="Current Feature / Bug / Enhancement Workflow" style="text;html=1;strokeColor=none;fillColor=default;align=center;verticalAlign=middle;whiteSpace=wrap;rounded=0;strokeWidth=4;fontFamily=Helvetica;fontSize=22;fontColor=#616161;fontStyle=1;spacingTop=0;spacing=2;" parent="1" vertex="1">
          <mxGeometry x="66" y="360" width="600" height="36" as="geometry" />
        </mxCell>
        <mxCell id="6KDq_unp0hzbyiRueTE_-12" value="" style="ellipse;whiteSpace=wrap;html=1;strokeColor=#000000;strokeWidth=2;fontFamily=Helvetica;fontSize=18;fontColor=#616161;fillColor=#99CCFF;" parent="1" vertex="1">
          <mxGeometry x="797" y="540" width="20" height="20" as="geometry" />
        </mxCell>
        <mxCell id="6KDq_unp0hzbyiRueTE_-13" value="master" style="text;html=1;strokeColor=none;fillColor=none;align=center;verticalAlign=middle;whiteSpace=wrap;rounded=0;strokeWidth=2;fontFamily=Comic Sans MS;fontSize=18;fontColor=#616161;" parent="1" vertex="1">
          <mxGeometry x="830" y="534" width="60" height="30" as="geometry" />
        </mxCell>
        <mxCell id="6KDq_unp0hzbyiRueTE_-14" value="" style="ellipse;whiteSpace=wrap;html=1;strokeColor=#000000;strokeWidth=2;fontFamily=Helvetica;fontSize=18;fontColor=#616161;fillColor=#99CCFF;" parent="1" vertex="1">
          <mxGeometry x="797" y="691" width="20" height="20" as="geometry" />
        </mxCell>
        <mxCell id="6KDq_unp0hzbyiRueTE_-15" value="" style="endArrow=none;html=1;rounded=1;fontFamily=Helvetica;fontSize=12;fontColor=#FF3333;entryX=0.47;entryY=1.033;entryDx=0;entryDy=0;entryPerimeter=0;strokeWidth=7;strokeColor=#BDBDBD;" parent="1" target="6KDq_unp0hzbyiRueTE_-14" edge="1">
          <mxGeometry width="50" height="50" relative="1" as="geometry">
            <mxPoint x="810" y="2440" as="sourcePoint" />
            <mxPoint x="804" y="310" as="targetPoint" />
          </mxGeometry>
        </mxCell>
        <mxCell id="6KDq_unp0hzbyiRueTE_-16" value="feature/EL-####" style="text;html=1;strokeColor=none;fillColor=none;align=center;verticalAlign=middle;whiteSpace=wrap;rounded=0;strokeWidth=2;fontFamily=Comic Sans MS;fontSize=17;fontColor=#616161;" parent="1" vertex="1">
          <mxGeometry x="816" y="686" width="184" height="30" as="geometry" />
        </mxCell>
        <mxCell id="6KDq_unp0hzbyiRueTE_-21" value="" style="curved=1;endArrow=classic;html=1;rounded=1;strokeColor=#000000;strokeWidth=3;fontFamily=Comic Sans MS;fontSize=18;fontColor=#616161;elbow=vertical;" parent="1" edge="1">
          <mxGeometry width="50" height="50" relative="1" as="geometry">
            <mxPoint x="820" y="530" as="sourcePoint" />
            <mxPoint x="1110" y="460" as="targetPoint" />
            <Array as="points">
              <mxPoint x="976" y="330" />
            </Array>
          </mxGeometry>
        </mxCell>
        <mxCell id="6KDq_unp0hzbyiRueTE_-26" value="Deploy" style="edgeLabel;html=1;align=center;verticalAlign=middle;resizable=0;points=[];fontSize=18;fontFamily=Comic Sans MS;fontColor=#616161;" parent="6KDq_unp0hzbyiRueTE_-21" vertex="1" connectable="0">
          <mxGeometry x="-0.2938" y="-39" relative="1" as="geometry">
            <mxPoint as="offset" />
          </mxGeometry>
        </mxCell>
        <mxCell id="6KDq_unp0hzbyiRueTE_-22" value="" style="ellipse;whiteSpace=wrap;html=1;strokeColor=#000000;strokeWidth=2;fontFamily=Helvetica;fontSize=18;fontColor=#616161;fillColor=#E5CCFF;" parent="1" vertex="1">
          <mxGeometry x="1122" y="539" width="20" height="20" as="geometry" />
        </mxCell>
        <mxCell id="6KDq_unp0hzbyiRueTE_-25" value="Production" style="text;html=1;strokeColor=none;fillColor=none;align=center;verticalAlign=middle;whiteSpace=wrap;rounded=0;strokeWidth=2;fontFamily=Comic Sans MS;fontSize=18;fontColor=#616161;" parent="1" vertex="1">
          <mxGeometry x="1161" y="530" width="60" height="30" as="geometry" />
        </mxCell>
        <mxCell id="6KDq_unp0hzbyiRueTE_-27" value="" style="curved=1;endArrow=classic;html=1;rounded=1;strokeColor=#000000;strokeWidth=3;fontFamily=Comic Sans MS;fontSize=18;fontColor=#616161;elbow=vertical;dashed=1;" parent="1" edge="1">
          <mxGeometry width="50" height="50" relative="1" as="geometry">
            <mxPoint x="790" y="700" as="sourcePoint" />
            <mxPoint x="780" y="550" as="targetPoint" />
            <Array as="points">
              <mxPoint x="650" y="610" />
            </Array>
          </mxGeometry>
        </mxCell>
        <mxCell id="6KDq_unp0hzbyiRueTE_-28" value="Pull Request" style="edgeLabel;html=1;align=center;verticalAlign=middle;resizable=0;points=[];fontSize=13;fontFamily=Comic Sans MS;fontColor=#616161;" parent="6KDq_unp0hzbyiRueTE_-27" vertex="1" connectable="0">
          <mxGeometry x="-0.2938" y="-39" relative="1" as="geometry">
            <mxPoint y="19" as="offset" />
          </mxGeometry>
        </mxCell>
        <mxCell id="6KDq_unp0hzbyiRueTE_-29" value="" style="curved=1;endArrow=classic;html=1;rounded=1;strokeColor=#000000;strokeWidth=3;fontFamily=Comic Sans MS;fontSize=18;fontColor=#616161;elbow=vertical;" parent="1" edge="1">
          <mxGeometry width="50" height="50" relative="1" as="geometry">
            <mxPoint x="817" y="719" as="sourcePoint" />
            <mxPoint x="1110" y="710" as="targetPoint" />
            <Array as="points">
              <mxPoint x="981" y="860" />
            </Array>
          </mxGeometry>
        </mxCell>
        <mxCell id="6KDq_unp0hzbyiRueTE_-30" value="Deploy" style="edgeLabel;html=1;align=center;verticalAlign=middle;resizable=0;points=[];fontSize=18;fontFamily=Comic Sans MS;fontColor=#616161;" parent="6KDq_unp0hzbyiRueTE_-29" vertex="1" connectable="0">
          <mxGeometry x="-0.2938" y="-39" relative="1" as="geometry">
            <mxPoint x="69" y="-54" as="offset" />
          </mxGeometry>
        </mxCell>
        <mxCell id="6KDq_unp0hzbyiRueTE_-31" value="" style="ellipse;whiteSpace=wrap;html=1;strokeColor=#000000;strokeWidth=2;fontFamily=Helvetica;fontSize=18;fontColor=#616161;fillColor=#E5CCFF;" parent="1" vertex="1">
          <mxGeometry x="1123" y="696" width="20" height="20" as="geometry" />
        </mxCell>
        <mxCell id="6KDq_unp0hzbyiRueTE_-33" value="Dev&lt;br&gt;" style="text;html=1;strokeColor=none;fillColor=none;align=center;verticalAlign=middle;whiteSpace=wrap;rounded=0;strokeWidth=2;fontFamily=Comic Sans MS;fontSize=18;fontColor=#616161;" parent="1" vertex="1">
          <mxGeometry x="1143" y="690" width="67" height="30" as="geometry" />
        </mxCell>
        <mxCell id="6KDq_unp0hzbyiRueTE_-34" value="Current Upgrade Workflow" style="text;html=1;strokeColor=none;fillColor=default;align=center;verticalAlign=middle;whiteSpace=wrap;rounded=0;strokeWidth=4;fontFamily=Helvetica;fontSize=22;fontColor=#616161;fontStyle=1;spacingTop=0;spacing=2;" parent="1" vertex="1">
          <mxGeometry x="125" y="860" width="300" height="36" as="geometry" />
        </mxCell>
        <mxCell id="6KDq_unp0hzbyiRueTE_-35" value="" style="ellipse;whiteSpace=wrap;html=1;strokeColor=#000000;strokeWidth=2;fontFamily=Helvetica;fontSize=18;fontColor=#616161;fillColor=#FFCC99;" parent="1" vertex="1">
          <mxGeometry x="174.5" y="1148" width="20" height="20" as="geometry" />
        </mxCell>
        <mxCell id="6KDq_unp0hzbyiRueTE_-36" value="release/1.##" style="text;html=1;strokeColor=none;fillColor=none;align=center;verticalAlign=middle;whiteSpace=wrap;rounded=0;strokeWidth=2;fontFamily=Comic Sans MS;fontSize=18;fontColor=#616161;" parent="1" vertex="1">
          <mxGeometry x="203.5" y="1143" width="105" height="30" as="geometry" />
        </mxCell>
        <mxCell id="6KDq_unp0hzbyiRueTE_-37" value="" style="ellipse;whiteSpace=wrap;html=1;strokeColor=#000000;strokeWidth=2;fontFamily=Helvetica;fontSize=18;fontColor=#616161;fillColor=#99FF99;" parent="1" vertex="1">
          <mxGeometry x="483" y="990" width="20" height="20" as="geometry" />
        </mxCell>
        <mxCell id="6KDq_unp0hzbyiRueTE_-38" value="master" style="text;html=1;strokeColor=none;fillColor=none;align=center;verticalAlign=middle;whiteSpace=wrap;rounded=0;strokeWidth=2;fontFamily=Comic Sans MS;fontSize=18;fontColor=#616161;" parent="1" vertex="1">
          <mxGeometry x="503" y="983" width="85" height="30" as="geometry" />
        </mxCell>
        <mxCell id="6KDq_unp0hzbyiRueTE_-39" value="" style="ellipse;whiteSpace=wrap;html=1;strokeColor=#000000;strokeWidth=2;fontFamily=Helvetica;fontSize=18;fontColor=#616161;fillColor=#99FF99;" parent="1" vertex="1">
          <mxGeometry x="484" y="1143" width="20" height="20" as="geometry" />
        </mxCell>
        <mxCell id="6KDq_unp0hzbyiRueTE_-40" value="tor-med-v1.##" style="text;html=1;strokeColor=none;fillColor=none;align=center;verticalAlign=middle;whiteSpace=wrap;rounded=0;strokeWidth=2;fontFamily=Comic Sans MS;fontSize=18;fontColor=#616161;" parent="1" vertex="1">
          <mxGeometry x="499" y="1137" width="167" height="30" as="geometry" />
        </mxCell>
        <mxCell id="6KDq_unp0hzbyiRueTE_-42" value="" style="curved=1;endArrow=none;html=1;rounded=1;strokeColor=#000000;strokeWidth=3;fontFamily=Comic Sans MS;fontSize=18;fontColor=#616161;elbow=vertical;dashed=1;startArrow=classic;startFill=1;endFill=0;" parent="1" edge="1">
          <mxGeometry width="50" height="50" relative="1" as="geometry">
            <mxPoint x="510" y="1130" as="sourcePoint" />
            <mxPoint x="509.99999999999955" y="1014.9999999999998" as="targetPoint" />
            <Array as="points">
              <mxPoint x="670" y="1080" />
            </Array>
          </mxGeometry>
        </mxCell>
        <mxCell id="6KDq_unp0hzbyiRueTE_-43" value="&lt;font style=&quot;&quot; color=&quot;#ff3333&quot;&gt;&lt;b style=&quot;&quot;&gt;&lt;u style=&quot;&quot;&gt;&lt;font style=&quot;font-size: 15px;&quot;&gt;Step 1.1&lt;/font&gt;&lt;/u&gt;&lt;br style=&quot;font-size: 15px;&quot;&gt;&lt;/b&gt;&lt;/font&gt;Branch" style="edgeLabel;html=1;align=center;verticalAlign=middle;resizable=0;points=[];fontSize=15;fontFamily=Comic Sans MS;fontColor=#616161;" parent="6KDq_unp0hzbyiRueTE_-42" vertex="1" connectable="0">
          <mxGeometry x="-0.2938" y="-39" relative="1" as="geometry">
            <mxPoint x="-58" y="-61" as="offset" />
          </mxGeometry>
        </mxCell>
        <mxCell id="6KDq_unp0hzbyiRueTE_-44" value="" style="curved=1;endArrow=classic;html=1;rounded=1;strokeColor=#000000;strokeWidth=3;fontFamily=Comic Sans MS;fontSize=18;fontColor=#616161;elbow=vertical;" parent="1" edge="1">
          <mxGeometry width="50" height="50" relative="1" as="geometry">
            <mxPoint x="191.5" y="1172.9999999999998" as="sourcePoint" />
            <mxPoint x="470" y="1160" as="targetPoint" />
            <Array as="points">
              <mxPoint x="320" y="1365" />
            </Array>
          </mxGeometry>
        </mxCell>
        <mxCell id="6KDq_unp0hzbyiRueTE_-45" value="&lt;font style=&quot;font-size: 15px;&quot; color=&quot;#ff3333&quot;&gt;&lt;b style=&quot;font-size: 15px;&quot;&gt;&lt;u style=&quot;font-size: 15px;&quot;&gt;Step 2&lt;/u&gt;&lt;br style=&quot;font-size: 15px;&quot;&gt;&lt;/b&gt;&lt;/font&gt;Merge" style="edgeLabel;html=1;align=center;verticalAlign=middle;resizable=0;points=[];fontSize=15;fontFamily=Comic Sans MS;fontColor=#616161;" parent="6KDq_unp0hzbyiRueTE_-44" vertex="1" connectable="0">
          <mxGeometry x="-0.2938" y="-39" relative="1" as="geometry">
            <mxPoint x="87" y="-64" as="offset" />
          </mxGeometry>
        </mxCell>
        <mxCell id="6KDq_unp0hzbyiRueTE_-46" value="" style="ellipse;whiteSpace=wrap;html=1;strokeColor=#000000;strokeWidth=2;fontFamily=Helvetica;fontSize=18;fontColor=#616161;fillColor=#99CCFF;" parent="1" vertex="1">
          <mxGeometry x="797" y="989" width="20" height="20" as="geometry" />
        </mxCell>
        <mxCell id="6KDq_unp0hzbyiRueTE_-47" value="master" style="text;html=1;strokeColor=none;fillColor=none;align=center;verticalAlign=middle;whiteSpace=wrap;rounded=0;strokeWidth=2;fontFamily=Comic Sans MS;fontSize=18;fontColor=#616161;" parent="1" vertex="1">
          <mxGeometry x="830" y="983" width="60" height="30" as="geometry" />
        </mxCell>
        <mxCell id="6KDq_unp0hzbyiRueTE_-48" value="" style="ellipse;whiteSpace=wrap;html=1;strokeColor=#000000;strokeWidth=2;fontFamily=Helvetica;fontSize=18;fontColor=#616161;fillColor=#99CCFF;" parent="1" vertex="1">
          <mxGeometry x="797" y="1138" width="20" height="20" as="geometry" />
        </mxCell>
        <mxCell id="6KDq_unp0hzbyiRueTE_-49" value="tor-med-v1.##" style="text;html=1;strokeColor=none;fillColor=none;align=center;verticalAlign=middle;whiteSpace=wrap;rounded=0;strokeWidth=2;fontFamily=Comic Sans MS;fontSize=17;fontColor=#616161;" parent="1" vertex="1">
          <mxGeometry x="816" y="1133" width="184" height="30" as="geometry" />
        </mxCell>
        <mxCell id="6KDq_unp0hzbyiRueTE_-50" value="" style="curved=1;endArrow=none;html=1;rounded=1;strokeColor=#000000;strokeWidth=3;fontFamily=Comic Sans MS;fontSize=18;fontColor=#616161;elbow=vertical;startArrow=classic;startFill=1;endFill=0;" parent="1" edge="1">
          <mxGeometry width="50" height="50" relative="1" as="geometry">
            <mxPoint x="828" y="1125" as="sourcePoint" />
            <mxPoint x="827.9999999999995" y="1010" as="targetPoint" />
            <Array as="points">
              <mxPoint x="988" y="1075" />
            </Array>
          </mxGeometry>
        </mxCell>
        <mxCell id="6KDq_unp0hzbyiRueTE_-51" value="&lt;font style=&quot;font-size: 15px;&quot; color=&quot;#ff3333&quot;&gt;&lt;b style=&quot;font-size: 15px;&quot;&gt;&lt;u style=&quot;font-size: 15px;&quot;&gt;Step 1.2&lt;/u&gt;&lt;br style=&quot;font-size: 15px;&quot;&gt;&lt;/b&gt;&lt;/font&gt;Branch" style="edgeLabel;html=1;align=center;verticalAlign=middle;resizable=0;points=[];fontSize=15;fontFamily=Comic Sans MS;fontColor=#616161;" parent="6KDq_unp0hzbyiRueTE_-50" vertex="1" connectable="0">
          <mxGeometry x="-0.2938" y="-39" relative="1" as="geometry">
            <mxPoint x="-46" y="-56" as="offset" />
          </mxGeometry>
        </mxCell>
        <mxCell id="6KDq_unp0hzbyiRueTE_-52" value="" style="curved=1;endArrow=classic;html=1;rounded=1;strokeColor=#000000;strokeWidth=3;fontFamily=Comic Sans MS;fontSize=18;fontColor=#616161;elbow=vertical;" parent="1" edge="1">
          <mxGeometry width="50" height="50" relative="1" as="geometry">
            <mxPoint x="510" y="1181" as="sourcePoint" />
            <mxPoint x="788.5" y="1168" as="targetPoint" />
            <Array as="points">
              <mxPoint x="638.5" y="1373" />
            </Array>
          </mxGeometry>
        </mxCell>
        <mxCell id="6KDq_unp0hzbyiRueTE_-53" value="&lt;font style=&quot;font-size: 15px;&quot; color=&quot;#ff3333&quot;&gt;&lt;b style=&quot;font-size: 15px;&quot;&gt;&lt;u style=&quot;font-size: 15px;&quot;&gt;Step 3&lt;/u&gt;&lt;br style=&quot;font-size: 15px;&quot;&gt;&lt;/b&gt;&lt;/font&gt;Merge" style="edgeLabel;html=1;align=center;verticalAlign=middle;resizable=0;points=[];fontSize=15;fontFamily=Comic Sans MS;fontColor=#616161;" parent="6KDq_unp0hzbyiRueTE_-52" vertex="1" connectable="0">
          <mxGeometry x="-0.2938" y="-39" relative="1" as="geometry">
            <mxPoint x="77" y="-65" as="offset" />
          </mxGeometry>
        </mxCell>
        <mxCell id="6KDq_unp0hzbyiRueTE_-54" value="" style="curved=1;endArrow=classic;html=1;rounded=1;strokeColor=#000000;strokeWidth=3;fontFamily=Comic Sans MS;fontSize=18;fontColor=#616161;elbow=vertical;dashed=1;" parent="1" edge="1">
          <mxGeometry width="50" height="50" relative="1" as="geometry">
            <mxPoint x="796.9999999999995" y="1132.9999999999998" as="sourcePoint" />
            <mxPoint x="786.9999999999995" y="1017.9999999999998" as="targetPoint" />
            <Array as="points">
              <mxPoint x="657" y="1078" />
            </Array>
          </mxGeometry>
        </mxCell>
        <mxCell id="6KDq_unp0hzbyiRueTE_-55" value="&lt;b style=&quot;font-size: 15px;&quot;&gt;&lt;u style=&quot;font-size: 15px;&quot;&gt;&lt;font color=&quot;#ff3333&quot; style=&quot;font-size: 15px;&quot;&gt;Step 5&lt;/font&gt;&lt;/u&gt;&lt;/b&gt;&lt;br style=&quot;font-size: 15px;&quot;&gt;Pull&lt;br style=&quot;font-size: 15px;&quot;&gt;Request" style="edgeLabel;html=1;align=center;verticalAlign=middle;resizable=0;points=[];fontSize=15;fontFamily=Comic Sans MS;fontColor=#616161;" parent="6KDq_unp0hzbyiRueTE_-54" vertex="1" connectable="0">
          <mxGeometry x="-0.2938" y="-39" relative="1" as="geometry">
            <mxPoint y="19" as="offset" />
          </mxGeometry>
        </mxCell>
        <mxCell id="6KDq_unp0hzbyiRueTE_-56" value="" style="curved=1;endArrow=classic;html=1;rounded=1;strokeColor=#000000;strokeWidth=3;fontFamily=Comic Sans MS;fontSize=18;fontColor=#616161;elbow=vertical;" parent="1" edge="1">
          <mxGeometry width="50" height="50" relative="1" as="geometry">
            <mxPoint x="826" y="1172" as="sourcePoint" />
            <mxPoint x="1119" y="1162.9999999999998" as="targetPoint" />
            <Array as="points">
              <mxPoint x="990" y="1313" />
            </Array>
          </mxGeometry>
        </mxCell>
        <mxCell id="6KDq_unp0hzbyiRueTE_-57" value="&lt;b style=&quot;font-size: 15px;&quot;&gt;&lt;u style=&quot;font-size: 15px;&quot;&gt;&lt;font color=&quot;#ff3333&quot; style=&quot;font-size: 15px;&quot;&gt;Step 4&lt;/font&gt;&lt;/u&gt;&lt;/b&gt;&lt;br style=&quot;font-size: 15px;&quot;&gt;Deploy" style="edgeLabel;html=1;align=center;verticalAlign=middle;resizable=0;points=[];fontSize=15;fontFamily=Comic Sans MS;fontColor=#616161;" parent="6KDq_unp0hzbyiRueTE_-56" vertex="1" connectable="0">
          <mxGeometry x="-0.2938" y="-39" relative="1" as="geometry">
            <mxPoint x="69" y="-54" as="offset" />
          </mxGeometry>
        </mxCell>
        <mxCell id="6KDq_unp0hzbyiRueTE_-58" value="" style="curved=1;endArrow=classic;html=1;rounded=1;strokeColor=#000000;strokeWidth=3;fontFamily=Comic Sans MS;fontSize=18;fontColor=#616161;elbow=vertical;" parent="1" edge="1">
          <mxGeometry width="50" height="50" relative="1" as="geometry">
            <mxPoint x="827" y="978.9999999999998" as="sourcePoint" />
            <mxPoint x="1119.9999999999995" y="988.9999999999998" as="targetPoint" />
            <Array as="points">
              <mxPoint x="977" y="839" />
            </Array>
          </mxGeometry>
        </mxCell>
        <mxCell id="6KDq_unp0hzbyiRueTE_-59" value="&lt;b style=&quot;font-size: 15px;&quot;&gt;&lt;u&gt;&lt;font color=&quot;#ff3333&quot;&gt;Step 6&lt;/font&gt;&lt;/u&gt;&lt;/b&gt;&lt;br style=&quot;font-size: 15px;&quot;&gt;&lt;span style=&quot;font-size: 15px;&quot;&gt;Deploy&lt;/span&gt;" style="edgeLabel;html=1;align=center;verticalAlign=middle;resizable=0;points=[];fontSize=18;fontFamily=Comic Sans MS;fontColor=#616161;" parent="6KDq_unp0hzbyiRueTE_-58" vertex="1" connectable="0">
          <mxGeometry x="-0.2938" y="-39" relative="1" as="geometry">
            <mxPoint as="offset" />
          </mxGeometry>
        </mxCell>
        <mxCell id="6KDq_unp0hzbyiRueTE_-60" value="" style="ellipse;whiteSpace=wrap;html=1;strokeColor=#000000;strokeWidth=2;fontFamily=Helvetica;fontSize=18;fontColor=#616161;fillColor=#E5CCFF;" parent="1" vertex="1">
          <mxGeometry x="1125" y="1008" width="20" height="20" as="geometry" />
        </mxCell>
        <mxCell id="6KDq_unp0hzbyiRueTE_-61" value="Production" style="text;html=1;strokeColor=none;fillColor=none;align=center;verticalAlign=middle;whiteSpace=wrap;rounded=0;strokeWidth=2;fontFamily=Comic Sans MS;fontSize=18;fontColor=#616161;" parent="1" vertex="1">
          <mxGeometry x="1172" y="999" width="60" height="30" as="geometry" />
        </mxCell>
        <mxCell id="6KDq_unp0hzbyiRueTE_-62" value="" style="ellipse;whiteSpace=wrap;html=1;strokeColor=#000000;strokeWidth=2;fontFamily=Helvetica;fontSize=18;fontColor=#616161;fillColor=#E5CCFF;" parent="1" vertex="1">
          <mxGeometry x="1126" y="1144" width="20" height="20" as="geometry" />
        </mxCell>
        <mxCell id="6KDq_unp0hzbyiRueTE_-63" value="QA" style="text;html=1;strokeColor=none;fillColor=none;align=center;verticalAlign=middle;whiteSpace=wrap;rounded=0;strokeWidth=2;fontFamily=Comic Sans MS;fontSize=18;fontColor=#616161;" parent="1" vertex="1">
          <mxGeometry x="1149" y="1138" width="60" height="30" as="geometry" />
        </mxCell>
        <mxCell id="6KDq_unp0hzbyiRueTE_-64" value="" style="curved=1;endArrow=none;html=1;rounded=1;strokeColor=#000000;strokeWidth=3;fontFamily=Comic Sans MS;fontSize=18;fontColor=#616161;elbow=vertical;startArrow=classic;startFill=1;endFill=0;entryX=0.25;entryY=1;entryDx=0;entryDy=0;exitX=0.143;exitY=-0.075;exitDx=0;exitDy=0;exitPerimeter=0;" parent="1" source="6KDq_unp0hzbyiRueTE_-16" target="6KDq_unp0hzbyiRueTE_-13" edge="1">
          <mxGeometry width="50" height="50" relative="1" as="geometry">
            <mxPoint x="828" y="665" as="sourcePoint" />
            <mxPoint x="827.9999999999995" y="550" as="targetPoint" />
            <Array as="points">
              <mxPoint x="988" y="615" />
            </Array>
          </mxGeometry>
        </mxCell>
        <mxCell id="6KDq_unp0hzbyiRueTE_-65" value="Branch" style="edgeLabel;html=1;align=center;verticalAlign=middle;resizable=0;points=[];fontSize=15;fontFamily=Comic Sans MS;fontColor=#616161;" parent="6KDq_unp0hzbyiRueTE_-64" vertex="1" connectable="0">
          <mxGeometry x="-0.2938" y="-39" relative="1" as="geometry">
            <mxPoint x="-46" y="-56" as="offset" />
          </mxGeometry>
        </mxCell>
        <mxCell id="6KDq_unp0hzbyiRueTE_-66" value="Desired Workflow" style="text;html=1;strokeColor=none;fillColor=default;align=center;verticalAlign=middle;whiteSpace=wrap;rounded=0;strokeWidth=4;fontFamily=Helvetica;fontSize=22;fontColor=#616161;fontStyle=1;spacingTop=0;spacing=2;" parent="1" vertex="1">
          <mxGeometry x="96" y="1400" width="290" height="36" as="geometry" />
        </mxCell>
        <mxCell id="6KDq_unp0hzbyiRueTE_-67" value="" style="ellipse;whiteSpace=wrap;html=1;strokeColor=#000000;strokeWidth=2;fontFamily=Helvetica;fontSize=18;fontColor=#616161;fillColor=#FFCC99;" parent="1" vertex="1">
          <mxGeometry x="179" y="1695" width="20" height="20" as="geometry" />
        </mxCell>
        <mxCell id="6KDq_unp0hzbyiRueTE_-68" value="master" style="text;html=1;strokeColor=none;fillColor=none;align=center;verticalAlign=middle;whiteSpace=wrap;rounded=0;strokeWidth=2;fontFamily=Comic Sans MS;fontSize=18;fontColor=#616161;" parent="1" vertex="1">
          <mxGeometry x="206.25" y="1690" width="69.5" height="30" as="geometry" />
        </mxCell>
        <mxCell id="6KDq_unp0hzbyiRueTE_-78" value="feature/EL-####&lt;br&gt;&lt;font style=&quot;font-size: 13px;&quot;&gt;&lt;span style=&quot;white-space: pre;&quot;&gt; &lt;/span&gt;This branch should be created from &lt;span style=&quot;white-space: pre;&quot;&gt; &lt;/span&gt;master so that we don&#39;t bring in &lt;span style=&quot;white-space: pre;&quot;&gt; &lt;/span&gt;unstable code from Consortium&#39;s &lt;span style=&quot;white-space: pre;&quot;&gt; &lt;/span&gt;develop branch&lt;/font&gt;" style="text;html=1;strokeColor=none;fillColor=none;align=left;verticalAlign=top;whiteSpace=wrap;rounded=0;strokeWidth=2;fontFamily=Comic Sans MS;fontSize=18;fontColor=#616161;" parent="1" vertex="1">
          <mxGeometry x="519" y="1680" width="271" height="70" as="geometry" />
        </mxCell>
        <mxCell id="6KDq_unp0hzbyiRueTE_-79" value="" style="curved=1;endArrow=classic;html=1;rounded=1;strokeColor=#000000;strokeWidth=3;fontFamily=Comic Sans MS;fontSize=18;fontColor=#616161;elbow=vertical;" parent="1" edge="1">
          <mxGeometry width="50" height="50" relative="1" as="geometry">
            <mxPoint x="505.5" y="1685" as="sourcePoint" />
            <mxPoint x="1120" y="1685" as="targetPoint" />
            <Array as="points">
              <mxPoint x="816.5" y="1418" />
            </Array>
          </mxGeometry>
        </mxCell>
        <mxCell id="6KDq_unp0hzbyiRueTE_-80" value="Deploy" style="edgeLabel;html=1;align=center;verticalAlign=middle;resizable=0;points=[];fontSize=18;fontFamily=Comic Sans MS;fontColor=#616161;" parent="6KDq_unp0hzbyiRueTE_-79" vertex="1" connectable="0">
          <mxGeometry x="-0.2938" y="-39" relative="1" as="geometry">
            <mxPoint x="48" y="22" as="offset" />
          </mxGeometry>
        </mxCell>
        <mxCell id="6KDq_unp0hzbyiRueTE_-82" value="Dev&lt;br&gt;&lt;font style=&quot;font-size: 14px;&quot;&gt;(Shared by all engineers. Possible to overwrite each other&#39;s changes)&lt;/font&gt;" style="text;html=1;strokeColor=none;fillColor=none;align=center;verticalAlign=middle;whiteSpace=wrap;rounded=0;strokeWidth=2;fontFamily=Comic Sans MS;fontSize=18;fontColor=#616161;" parent="1" vertex="1">
          <mxGeometry x="1156.5" y="1685" width="195.5" height="30" as="geometry" />
        </mxCell>
        <mxCell id="6KDq_unp0hzbyiRueTE_-85" value="" style="curved=1;endArrow=classic;html=1;rounded=1;strokeColor=#000000;strokeWidth=3;fontFamily=Comic Sans MS;fontSize=18;fontColor=#616161;elbow=vertical;dashed=1;entryX=0;entryY=1;entryDx=0;entryDy=0;" parent="1" target="CEuriS3uKBIrCMYuv9VH-8" edge="1">
          <mxGeometry width="50" height="50" relative="1" as="geometry">
            <mxPoint x="480" y="1710" as="sourcePoint" />
            <mxPoint x="230" y="1840" as="targetPoint" />
            <Array as="points">
              <mxPoint x="360" y="1890" />
            </Array>
          </mxGeometry>
        </mxCell>
        <mxCell id="6KDq_unp0hzbyiRueTE_-86" value="Pull Request" style="edgeLabel;html=1;align=center;verticalAlign=middle;resizable=0;points=[];fontSize=13;fontFamily=Comic Sans MS;fontColor=#616161;" parent="6KDq_unp0hzbyiRueTE_-85" vertex="1" connectable="0">
          <mxGeometry x="-0.2938" y="-39" relative="1" as="geometry">
            <mxPoint x="-5" y="51" as="offset" />
          </mxGeometry>
        </mxCell>
        <mxCell id="6KDq_unp0hzbyiRueTE_-87" value="" style="curved=1;endArrow=classic;html=1;rounded=1;strokeColor=#000000;strokeWidth=3;fontFamily=Comic Sans MS;fontSize=18;fontColor=#616161;elbow=vertical;" parent="1" edge="1">
          <mxGeometry width="50" height="50" relative="1" as="geometry">
            <mxPoint x="508" y="2088.9999999999995" as="sourcePoint" />
            <mxPoint x="1130" y="2090" as="targetPoint" />
            <Array as="points">
              <mxPoint x="815" y="1910" />
            </Array>
          </mxGeometry>
        </mxCell>
        <mxCell id="6KDq_unp0hzbyiRueTE_-88" value="Deploy" style="edgeLabel;html=1;align=center;verticalAlign=middle;resizable=0;points=[];fontSize=18;fontFamily=Comic Sans MS;fontColor=#616161;" parent="6KDq_unp0hzbyiRueTE_-87" vertex="1" connectable="0">
          <mxGeometry x="-0.2938" y="-39" relative="1" as="geometry">
            <mxPoint x="70" y="5" as="offset" />
          </mxGeometry>
        </mxCell>
        <mxCell id="6KDq_unp0hzbyiRueTE_-89" value="" style="ellipse;whiteSpace=wrap;html=1;strokeColor=#000000;strokeWidth=2;fontFamily=Helvetica;fontSize=18;fontColor=#616161;fillColor=#E5CCFF;" parent="1" vertex="1">
          <mxGeometry x="1136.5" y="2085" width="20" height="20" as="geometry" />
        </mxCell>
        <mxCell id="6KDq_unp0hzbyiRueTE_-90" value="" style="endArrow=none;html=1;rounded=1;fontFamily=Helvetica;fontSize=12;fontColor=#FF3333;entryX=0.47;entryY=1.033;entryDx=0;entryDy=0;entryPerimeter=0;strokeWidth=7;strokeColor=#BDBDBD;startArrow=none;" parent="1" target="6KDq_unp0hzbyiRueTE_-89" edge="1">
          <mxGeometry width="50" height="50" relative="1" as="geometry">
            <mxPoint x="1144" y="2440" as="sourcePoint" />
            <mxPoint x="1130" y="309.9999999999998" as="targetPoint" />
          </mxGeometry>
        </mxCell>
        <mxCell id="6KDq_unp0hzbyiRueTE_-91" value="QA" style="text;html=1;strokeColor=none;fillColor=none;align=center;verticalAlign=middle;whiteSpace=wrap;rounded=0;strokeWidth=2;fontFamily=Comic Sans MS;fontSize=18;fontColor=#616161;" parent="1" vertex="1">
          <mxGeometry x="1162" y="2080" width="34" height="30" as="geometry" />
        </mxCell>
        <mxCell id="6KDq_unp0hzbyiRueTE_-96" value="" style="curved=1;endArrow=classic;html=1;rounded=1;strokeColor=#000000;strokeWidth=3;fontFamily=Comic Sans MS;fontSize=14;fontColor=#FF3333;elbow=vertical;" parent="1" edge="1">
          <mxGeometry width="50" height="50" relative="1" as="geometry">
            <mxPoint x="480" y="2117" as="sourcePoint" />
            <mxPoint x="480" y="2280" as="targetPoint" />
            <Array as="points">
              <mxPoint x="410" y="2190" />
            </Array>
          </mxGeometry>
        </mxCell>
        <mxCell id="6KDq_unp0hzbyiRueTE_-97" value="&lt;span style=&quot;color: rgb(97, 97, 97); font-size: 15px;&quot;&gt;Tag&lt;/span&gt;" style="edgeLabel;html=1;align=center;verticalAlign=middle;resizable=0;points=[];fontSize=14;fontFamily=Comic Sans MS;fontColor=#FF3333;" parent="6KDq_unp0hzbyiRueTE_-96" vertex="1" connectable="0">
          <mxGeometry x="0.6007" y="15" relative="1" as="geometry">
            <mxPoint x="-17" y="-41" as="offset" />
          </mxGeometry>
        </mxCell>
        <mxCell id="6KDq_unp0hzbyiRueTE_-98" value="" style="ellipse;whiteSpace=wrap;html=1;strokeColor=#000000;strokeWidth=2;fontFamily=Helvetica;fontSize=18;fontColor=#616161;fillColor=#99FF99;" parent="1" vertex="1">
          <mxGeometry x="488" y="2097" width="20" height="20" as="geometry" />
        </mxCell>
        <mxCell id="6KDq_unp0hzbyiRueTE_-99" value="master" style="text;html=1;strokeColor=none;fillColor=none;align=center;verticalAlign=middle;whiteSpace=wrap;rounded=0;strokeWidth=2;fontFamily=Comic Sans MS;fontSize=18;fontColor=#616161;" parent="1" vertex="1">
          <mxGeometry x="519" y="2092" width="69" height="30" as="geometry" />
        </mxCell>
        <mxCell id="6KDq_unp0hzbyiRueTE_-100" value="" style="ellipse;whiteSpace=wrap;html=1;strokeColor=#000000;strokeWidth=2;fontFamily=Helvetica;fontSize=18;fontColor=#616161;fillColor=#FFCC99;" parent="1" vertex="1">
          <mxGeometry x="179" y="2097" width="20" height="20" as="geometry" />
        </mxCell>
        <mxCell id="6KDq_unp0hzbyiRueTE_-101" value="master" style="text;html=1;strokeColor=none;fillColor=none;align=center;verticalAlign=middle;whiteSpace=wrap;rounded=0;strokeWidth=2;fontFamily=Comic Sans MS;fontSize=18;fontColor=#616161;" parent="1" vertex="1">
          <mxGeometry x="206.25" y="2092" width="69.5" height="30" as="geometry" />
        </mxCell>
        <mxCell id="6KDq_unp0hzbyiRueTE_-102" value="" style="curved=1;endArrow=classic;html=1;rounded=1;strokeColor=#000000;strokeWidth=3;fontFamily=Comic Sans MS;fontSize=18;fontColor=#616161;elbow=vertical;" parent="1" edge="1">
          <mxGeometry width="50" height="50" relative="1" as="geometry">
            <mxPoint x="203.5" y="2090" as="sourcePoint" />
            <mxPoint x="460" y="2098" as="targetPoint" />
            <Array as="points">
              <mxPoint x="320" y="1950" />
            </Array>
          </mxGeometry>
        </mxCell>
        <mxCell id="6KDq_unp0hzbyiRueTE_-103" value="Sync fork&lt;br&gt;for releases" style="edgeLabel;html=1;align=center;verticalAlign=middle;resizable=0;points=[];fontSize=18;fontFamily=Comic Sans MS;fontColor=#616161;" parent="6KDq_unp0hzbyiRueTE_-102" vertex="1" connectable="0">
          <mxGeometry x="-0.2938" y="-39" relative="1" as="geometry">
            <mxPoint y="8" as="offset" />
          </mxGeometry>
        </mxCell>
        <mxCell id="6KDq_unp0hzbyiRueTE_-77" value="" style="ellipse;whiteSpace=wrap;html=1;strokeColor=#000000;strokeWidth=2;fontFamily=Helvetica;fontSize=18;fontColor=#616161;fillColor=#99FF99;" parent="1" vertex="1">
          <mxGeometry x="484" y="1690" width="20" height="20" as="geometry" />
        </mxCell>
        <mxCell id="6KDq_unp0hzbyiRueTE_-109" value="" style="curved=1;endArrow=classic;html=1;rounded=1;strokeColor=#000000;strokeWidth=3;fontFamily=Comic Sans MS;fontSize=18;fontColor=#616161;elbow=vertical;" parent="1" edge="1">
          <mxGeometry width="50" height="50" relative="1" as="geometry">
            <mxPoint x="203.5" y="1680" as="sourcePoint" />
            <mxPoint x="460" y="1688" as="targetPoint" />
            <Array as="points">
              <mxPoint x="320" y="1540" />
            </Array>
          </mxGeometry>
        </mxCell>
        <mxCell id="6KDq_unp0hzbyiRueTE_-110" value="Branch" style="edgeLabel;html=1;align=center;verticalAlign=middle;resizable=0;points=[];fontSize=18;fontFamily=Comic Sans MS;fontColor=#616161;" parent="6KDq_unp0hzbyiRueTE_-109" vertex="1" connectable="0">
          <mxGeometry x="-0.2938" y="-39" relative="1" as="geometry">
            <mxPoint x="29" y="109" as="offset" />
          </mxGeometry>
        </mxCell>
        <mxCell id="6KDq_unp0hzbyiRueTE_-81" value="" style="ellipse;whiteSpace=wrap;html=1;strokeColor=#000000;strokeWidth=2;fontFamily=Helvetica;fontSize=18;fontColor=#616161;fillColor=#E5CCFF;" parent="1" vertex="1">
          <mxGeometry x="1134" y="1690" width="20" height="20" as="geometry" />
        </mxCell>
        <mxCell id="6KDq_unp0hzbyiRueTE_-112" value="" style="curved=1;endArrow=classic;html=1;rounded=1;strokeColor=#000000;strokeWidth=3;fontFamily=Comic Sans MS;fontSize=14;fontColor=#FF3333;elbow=vertical;" parent="1" edge="1">
          <mxGeometry width="50" height="50" relative="1" as="geometry">
            <mxPoint x="510" y="1730" as="sourcePoint" />
            <mxPoint x="510" y="2070" as="targetPoint" />
            <Array as="points">
              <mxPoint x="610" y="1860" />
            </Array>
          </mxGeometry>
        </mxCell>
        <mxCell id="6KDq_unp0hzbyiRueTE_-113" value="&lt;span style=&quot;color: rgb(97, 97, 97); font-size: 15px;&quot;&gt;Merge&lt;/span&gt;" style="edgeLabel;html=1;align=center;verticalAlign=middle;resizable=0;points=[];fontSize=14;fontFamily=Comic Sans MS;fontColor=#FF3333;" parent="6KDq_unp0hzbyiRueTE_-112" vertex="1" connectable="0">
          <mxGeometry x="0.6007" y="15" relative="1" as="geometry">
            <mxPoint x="1" y="-142" as="offset" />
          </mxGeometry>
        </mxCell>
        <mxCell id="6KDq_unp0hzbyiRueTE_-114" value="v1.##.yyyymmdd" style="text;html=1;strokeColor=none;fillColor=none;align=center;verticalAlign=middle;whiteSpace=wrap;rounded=0;strokeWidth=2;fontFamily=Comic Sans MS;fontSize=18;fontColor=#616161;" parent="1" vertex="1">
          <mxGeometry x="522" y="2280" width="121" height="30" as="geometry" />
        </mxCell>
        <mxCell id="6KDq_unp0hzbyiRueTE_-115" value="" style="ellipse;whiteSpace=wrap;html=1;strokeColor=#000000;strokeWidth=2;fontFamily=Helvetica;fontSize=18;fontColor=#616161;fillColor=#99FF99;" parent="1" vertex="1">
          <mxGeometry x="488" y="2285" width="20" height="20" as="geometry" />
        </mxCell>
        <mxCell id="6KDq_unp0hzbyiRueTE_-116" value="" style="endArrow=none;html=1;rounded=1;fontFamily=Helvetica;fontSize=12;fontColor=#FF3333;entryX=0.47;entryY=1.033;entryDx=0;entryDy=0;entryPerimeter=0;strokeWidth=7;strokeColor=#BDBDBD;" parent="1" target="6KDq_unp0hzbyiRueTE_-115" edge="1">
          <mxGeometry width="50" height="50" relative="1" as="geometry">
            <mxPoint x="500" y="2440" as="sourcePoint" />
            <mxPoint x="493.4000000000001" y="1710.6599999999999" as="targetPoint" />
          </mxGeometry>
        </mxCell>
        <mxCell id="6KDq_unp0hzbyiRueTE_-117" value="" style="curved=1;endArrow=classic;html=1;rounded=1;strokeColor=#000000;strokeWidth=3;fontFamily=Comic Sans MS;fontSize=18;fontColor=#616161;elbow=vertical;exitX=0;exitY=1;exitDx=0;exitDy=0;" parent="1" source="6KDq_unp0hzbyiRueTE_-114" edge="1">
          <mxGeometry width="50" height="50" relative="1" as="geometry">
            <mxPoint x="499" y="2318.9999999999995" as="sourcePoint" />
            <mxPoint x="1120" y="2330" as="targetPoint" />
            <Array as="points">
              <mxPoint x="830" y="2420" />
            </Array>
          </mxGeometry>
        </mxCell>
        <mxCell id="6KDq_unp0hzbyiRueTE_-118" value="Deploy" style="edgeLabel;html=1;align=center;verticalAlign=middle;resizable=0;points=[];fontSize=18;fontFamily=Comic Sans MS;fontColor=#616161;" parent="6KDq_unp0hzbyiRueTE_-117" vertex="1" connectable="0">
          <mxGeometry x="-0.2938" y="-39" relative="1" as="geometry">
            <mxPoint x="89" y="-57" as="offset" />
          </mxGeometry>
        </mxCell>
        <mxCell id="6KDq_unp0hzbyiRueTE_-119" value="" style="ellipse;whiteSpace=wrap;html=1;strokeColor=#000000;strokeWidth=2;fontFamily=Helvetica;fontSize=18;fontColor=#616161;fillColor=#E5CCFF;" parent="1" vertex="1">
          <mxGeometry x="1134" y="2275" width="20" height="20" as="geometry" />
        </mxCell>
        <mxCell id="6KDq_unp0hzbyiRueTE_-120" value="UAT&lt;br&gt;&lt;font style=&quot;font-size: 14px;&quot;&gt;(Should always be a mirror of Production. To be used primarily by non-DC users, for training, demo, etc.)&lt;/font&gt;" style="text;html=1;strokeColor=none;fillColor=none;align=center;verticalAlign=middle;whiteSpace=wrap;rounded=0;strokeWidth=2;fontFamily=Comic Sans MS;fontSize=18;fontColor=#616161;" parent="1" vertex="1">
          <mxGeometry x="1159.5" y="2270" width="320.5" height="30" as="geometry" />
        </mxCell>
        <mxCell id="6KDq_unp0hzbyiRueTE_-122" value="Production" style="text;html=1;strokeColor=none;fillColor=none;align=center;verticalAlign=middle;whiteSpace=wrap;rounded=0;strokeWidth=2;fontFamily=Comic Sans MS;fontSize=18;fontColor=#616161;" parent="1" vertex="1">
          <mxGeometry x="1187" y="2335" width="34" height="30" as="geometry" />
        </mxCell>
        <mxCell id="6KDq_unp0hzbyiRueTE_-121" value="" style="ellipse;whiteSpace=wrap;html=1;strokeColor=#000000;strokeWidth=2;fontFamily=Helvetica;fontSize=18;fontColor=#616161;fillColor=#E5CCFF;" parent="1" vertex="1">
          <mxGeometry x="1134" y="2340" width="20" height="20" as="geometry" />
        </mxCell>
        <mxCell id="6KDq_unp0hzbyiRueTE_-128" value="&lt;i style=&quot;font-size: 20px;&quot;&gt;&lt;font color=&quot;#465e75&quot;&gt;Feature Development&lt;/font&gt;&lt;/i&gt;" style="text;html=1;strokeColor=none;fillColor=default;align=center;verticalAlign=middle;whiteSpace=wrap;rounded=0;strokeWidth=4;fontFamily=Helvetica;fontSize=22;fontColor=#616161;fontStyle=1;spacingTop=0;spacing=2;" parent="1" vertex="1">
          <mxGeometry x="135" y="1511.37" width="290" height="36" as="geometry" />
        </mxCell>
        <mxCell id="6KDq_unp0hzbyiRueTE_-131" value="&lt;i style=&quot;font-size: 20px;&quot;&gt;&lt;font color=&quot;#465e75&quot;&gt;Upgrades&lt;/font&gt;&lt;/i&gt;" style="text;html=1;strokeColor=none;fillColor=default;align=center;verticalAlign=middle;whiteSpace=wrap;rounded=0;strokeWidth=4;fontFamily=Helvetica;fontSize=22;fontColor=#616161;fontStyle=1;spacingTop=0;spacing=2;" parent="1" vertex="1">
          <mxGeometry x="149" y="1890" width="155" height="36" as="geometry" />
        </mxCell>
        <mxCell id="CEuriS3uKBIrCMYuv9VH-1" value="" style="ellipse;whiteSpace=wrap;html=1;strokeColor=#000000;strokeWidth=2;fontFamily=Helvetica;fontSize=18;fontColor=#616161;fillColor=#E5CCFF;" parent="1" vertex="1">
          <mxGeometry x="1123" y="499" width="20" height="20" as="geometry" />
        </mxCell>
        <mxCell id="CEuriS3uKBIrCMYuv9VH-2" value="UAT" style="text;html=1;strokeColor=none;fillColor=none;align=center;verticalAlign=middle;whiteSpace=wrap;rounded=0;strokeWidth=2;fontFamily=Comic Sans MS;fontSize=18;fontColor=#616161;" parent="1" vertex="1">
          <mxGeometry x="1149" y="489" width="60" height="30" as="geometry" />
        </mxCell>
        <mxCell id="CEuriS3uKBIrCMYuv9VH-3" value="" style="ellipse;whiteSpace=wrap;html=1;strokeColor=#000000;strokeWidth=2;fontFamily=Helvetica;fontSize=18;fontColor=#616161;fillColor=#E5CCFF;" parent="1" vertex="1">
          <mxGeometry x="1126" y="969" width="20" height="20" as="geometry" />
        </mxCell>
        <mxCell id="CEuriS3uKBIrCMYuv9VH-4" value="UAT" style="text;html=1;strokeColor=none;fillColor=none;align=center;verticalAlign=middle;whiteSpace=wrap;rounded=0;strokeWidth=2;fontFamily=Comic Sans MS;fontSize=18;fontColor=#616161;" parent="1" vertex="1">
          <mxGeometry x="1165" y="960" width="60" height="30" as="geometry" />
        </mxCell>
        <mxCell id="CEuriS3uKBIrCMYuv9VH-5" value="" style="ellipse;whiteSpace=wrap;html=1;strokeColor=#000000;strokeWidth=2;fontFamily=Helvetica;fontSize=18;fontColor=#616161;fillColor=#E5CCFF;" parent="1" vertex="1">
          <mxGeometry x="1122" y="459" width="20" height="20" as="geometry" />
        </mxCell>
        <mxCell id="CEuriS3uKBIrCMYuv9VH-6" value="QA" style="text;html=1;strokeColor=none;fillColor=none;align=center;verticalAlign=middle;whiteSpace=wrap;rounded=0;strokeWidth=2;fontFamily=Comic Sans MS;fontSize=18;fontColor=#616161;" parent="1" vertex="1">
          <mxGeometry x="1143" y="449" width="60" height="30" as="geometry" />
        </mxCell>
        <mxCell id="CEuriS3uKBIrCMYuv9VH-7" value="" style="ellipse;whiteSpace=wrap;html=1;strokeColor=#000000;strokeWidth=2;fontFamily=Helvetica;fontSize=18;fontColor=#616161;fillColor=#FFCC99;" parent="1" vertex="1">
          <mxGeometry x="179" y="1805" width="20" height="20" as="geometry" />
        </mxCell>
        <mxCell id="CEuriS3uKBIrCMYuv9VH-8" value="develop" style="text;html=1;strokeColor=none;fillColor=none;align=center;verticalAlign=middle;whiteSpace=wrap;rounded=0;strokeWidth=2;fontFamily=Comic Sans MS;fontSize=18;fontColor=#616161;" parent="1" vertex="1">
          <mxGeometry x="206.25" y="1800" width="69.5" height="30" as="geometry" />
        </mxCell>
        <mxCell id="CEuriS3uKBIrCMYuv9VH-9" value="&lt;b&gt;The BIG RESET&lt;br&gt;&lt;/b&gt;&lt;br&gt;&lt;b&gt;Problem Statement: &lt;/b&gt;We have performed customizations to Elentra by making a copy (not a fork) of the ElentraProject/elentra-1x-me repository. This has resulted in our repository significantly diverging from Elentra core. As a result, whenever Elentra core releases a new version, the upgrade needs to be performed manually.&amp;nbsp;&lt;br&gt;&lt;br&gt;Additionally, we&#39;ve gotten into the habit of developing in our own repository and we don&#39;t contribute back to Elentra. As a result, we&#39;re not able to cement our position as a strong contributor to our community.&lt;br&gt;&lt;br&gt;&lt;b&gt;Background:&lt;/b&gt; In the past, with Knowledge4U, we would request them to make changes and they would do so. This was because K4U had a separate installation for our code and they just charged us to make changes.&lt;br&gt;&lt;br&gt;However, with a community-driver development approach of Elentra, we should be a more responsible citizen of the platform and make all changes in an extensible manner, contributing them back to the core platform. This will ensure that other medical schools are able to take advantage of our work.&lt;br&gt;&lt;br&gt;&lt;b&gt;Solution:&lt;/b&gt;&amp;nbsp;We need to start by going back to using Elentra core and determining the extent of customizations made so far. That determination can be made by:&lt;br&gt;1. Performing a code comparison; OR&lt;br&gt;2. Performing a feature comparison in the application; OR&lt;br&gt;3. A mix of the two approaches above in order divide-and-conquer. Mixing the two approaches will also provide a method of verification in case we&#39;re not sure whether a customization is truly our own or if it comes in from Elentra Core.&lt;br&gt;&amp;nbsp;&lt;br&gt;&lt;b&gt;Next Steps:&lt;br&gt;&lt;/b&gt;1. Discuss &quot;The BIG RESET&quot; with our product partners and get their buy-in.&lt;br&gt;2. Pause all new intent development&lt;br&gt;3. Perform customization analysis, categorizing each customization in one of the 3 buckets:&lt;br&gt;&lt;span style=&quot;white-space: pre;&quot;&gt; &lt;/span&gt;a. &lt;b&gt;Contribute back to the Consortium code&lt;/b&gt; (e.g. Selectives, MSPR). Completely newly built features would be the best candidate for this bucket.&lt;br&gt;&lt;b&gt;&amp;nbsp; &amp;nbsp; &amp;nbsp; &amp;nbsp; &lt;/b&gt;b.&lt;b&gt; Modify to be done in an extensible manner&lt;/b&gt; (i.e. ensure we&#39;re just filling in placeholders instead of making direct change), and then contribute back to Consortium. Examples of this might be column additions to reports.&lt;br&gt;&amp;nbsp; &amp;nbsp; &amp;nbsp; &amp;nbsp; c.&amp;nbsp;&lt;b&gt;Discard&lt;/b&gt;&amp;nbsp;- These would be &quot;customizations&quot; that modified the Elentra core code in a non-extensible manner. Changing these to be done in an extensible manner would not be a good value proposition and thus would need to be discarded aka reset back to Elentra core behaviour.&lt;br&gt;4. Create stories to apply each of the buckets above to the customizations.&lt;br&gt;5. Switch to Elentra core and start applying the customizations.&lt;br&gt;&lt;br&gt;&lt;b&gt;Additional Benefits:&lt;br&gt;&lt;/b&gt;1. As we make customizations, we haven&#39;t been documenting our changes. By staying truer to Elentra consortium code, we would be eliminating confusion since their documentation stays up-to-date (at least as per the Consortium).&lt;br&gt;2.&amp;nbsp;" style="text;html=1;strokeColor=none;fillColor=none;align=left;verticalAlign=top;whiteSpace=wrap;rounded=0;fontSize=15;" parent="1" vertex="1">
          <mxGeometry x="215.75" y="2550" width="1034.25" height="830" as="geometry" />
        </mxCell>
        <mxCell id="CEuriS3uKBIrCMYuv9VH-10" value="" style="curved=1;endArrow=classic;html=1;rounded=1;strokeColor=#000000;strokeWidth=3;fontFamily=Comic Sans MS;fontSize=18;fontColor=#616161;elbow=vertical;entryX=0.5;entryY=1;entryDx=0;entryDy=0;" parent="1" edge="1">
          <mxGeometry width="50" height="50" relative="1" as="geometry">
            <mxPoint x="1168" y="453" as="sourcePoint" />
            <mxPoint x="1192" y="462" as="targetPoint" />
            <Array as="points">
              <mxPoint x="1219" y="373" />
              <mxPoint x="1259" y="373" />
              <mxPoint x="1279" y="403" />
              <mxPoint x="1289" y="447" />
            </Array>
          </mxGeometry>
        </mxCell>
        <mxCell id="CEuriS3uKBIrCMYuv9VH-11" value="Test" style="edgeLabel;html=1;align=center;verticalAlign=middle;resizable=0;points=[];fontSize=18;fontFamily=Comic Sans MS;fontColor=#616161;" parent="CEuriS3uKBIrCMYuv9VH-10" vertex="1" connectable="0">
          <mxGeometry x="-0.2938" y="-39" relative="1" as="geometry">
            <mxPoint x="40" y="-22" as="offset" />
          </mxGeometry>
        </mxCell>
        <mxCell id="CEuriS3uKBIrCMYuv9VH-12" value="" style="curved=1;endArrow=classic;html=1;rounded=1;strokeColor=#000000;strokeWidth=3;fontFamily=Comic Sans MS;fontSize=18;fontColor=#616161;elbow=vertical;" parent="1" edge="1">
          <mxGeometry width="50" height="50" relative="1" as="geometry">
            <mxPoint x="830" y="540" as="sourcePoint" />
            <mxPoint x="1120" y="510" as="targetPoint" />
            <Array as="points">
              <mxPoint x="986" y="340" />
            </Array>
          </mxGeometry>
        </mxCell>
        <mxCell id="CEuriS3uKBIrCMYuv9VH-13" value="Deploy" style="edgeLabel;html=1;align=center;verticalAlign=middle;resizable=0;points=[];fontSize=18;fontFamily=Comic Sans MS;fontColor=#616161;" parent="CEuriS3uKBIrCMYuv9VH-12" vertex="1" connectable="0">
          <mxGeometry x="-0.2938" y="-39" relative="1" as="geometry">
            <mxPoint as="offset" />
          </mxGeometry>
        </mxCell>
        <mxCell id="CEuriS3uKBIrCMYuv9VH-14" value="" style="curved=1;endArrow=classic;html=1;rounded=0;fontSize=15;strokeWidth=3;" parent="1" edge="1">
          <mxGeometry width="50" height="50" relative="1" as="geometry">
            <mxPoint x="1080" y="470" as="sourcePoint" />
            <mxPoint x="1110" y="550" as="targetPoint" />
            <Array as="points">
              <mxPoint x="1040" y="520" />
              <mxPoint x="1080" y="550" />
            </Array>
          </mxGeometry>
        </mxCell>
      </root>
    </mxGraphModel>
  </diagram>
  <diagram name="Current Workflow" id="GDJzvvfVYOG9YpPhaJtf">
    <mxGraphModel dx="1554" dy="809" grid="1" gridSize="10" guides="1" tooltips="1" connect="1" arrows="1" fold="1" page="1" pageScale="1" pageWidth="850" pageHeight="1100" math="0" shadow="0">
      <root>
        <mxCell id="Wm2XCeXN5K-B_ODvsIcr-0" />
        <mxCell id="Wm2XCeXN5K-B_ODvsIcr-1" parent="Wm2XCeXN5K-B_ODvsIcr-0" />
        <mxCell id="Wm2XCeXN5K-B_ODvsIcr-4" value="&lt;font face=&quot;Verdana&quot;&gt;&lt;b&gt;&lt;font style=&quot;font-size: 12px;&quot;&gt;Elentra Consortium&lt;/font&gt;&lt;/b&gt;&lt;br&gt;ElentraProject:elentra-1x-me&lt;br&gt;&lt;br&gt;consortium&lt;br&gt;&lt;/font&gt;" style="rounded=1;whiteSpace=wrap;html=1;strokeColor=#FF8000;strokeWidth=4;" parent="Wm2XCeXN5K-B_ODvsIcr-1" vertex="1">
          <mxGeometry x="90" y="190" width="200" height="120" as="geometry" />
        </mxCell>
        <mxCell id="Wm2XCeXN5K-B_ODvsIcr-5" value="&lt;font face=&quot;Verdana&quot;&gt;&lt;b&gt;&lt;font style=&quot;font-size: 12px;&quot;&gt;Institutional Fork&lt;/font&gt;&lt;/b&gt;&lt;br&gt;DiscoveryCommons:elentra-1x-me&lt;br&gt;&lt;br&gt;upstream&lt;br&gt;&lt;/font&gt;" style="rounded=1;whiteSpace=wrap;html=1;strokeColor=#00CC66;strokeWidth=4;" parent="Wm2XCeXN5K-B_ODvsIcr-1" vertex="1">
          <mxGeometry x="370" y="190" width="230" height="120" as="geometry" />
        </mxCell>
        <mxCell id="Wm2XCeXN5K-B_ODvsIcr-6" value="&lt;font face=&quot;Verdana&quot;&gt;&lt;b&gt;&lt;font style=&quot;font-size: 12px;&quot;&gt;Development&lt;/font&gt;&lt;/b&gt;&lt;br&gt;DiscoveryCommons:elentra-1x-me-dev&lt;br&gt;&lt;br&gt;origin&lt;br&gt;&lt;/font&gt;" style="rounded=1;whiteSpace=wrap;html=1;strokeColor=#3399FF;strokeWidth=4;" parent="Wm2XCeXN5K-B_ODvsIcr-1" vertex="1">
          <mxGeometry x="677" y="190" width="260" height="120" as="geometry" />
        </mxCell>
        <mxCell id="Wm2XCeXN5K-B_ODvsIcr-7" value="&lt;font face=&quot;Verdana&quot;&gt;&lt;b&gt;&lt;font style=&quot;font-size: 12px;&quot;&gt;U of T Installation of Elentra&lt;/font&gt;&lt;/b&gt;&lt;br&gt;Servers managed by Central IT&lt;br&gt;&lt;/font&gt;" style="rounded=1;whiteSpace=wrap;html=1;strokeColor=#6600CC;strokeWidth=4;" parent="Wm2XCeXN5K-B_ODvsIcr-1" vertex="1">
          <mxGeometry x="1000" y="190" width="260" height="120" as="geometry" />
        </mxCell>
        <mxCell id="Wm2XCeXN5K-B_ODvsIcr-8" value="" style="endArrow=none;html=1;rounded=1;fontFamily=Helvetica;fontSize=12;fontColor=#FF3333;entryX=0.47;entryY=1.033;entryDx=0;entryDy=0;entryPerimeter=0;strokeWidth=7;strokeColor=#BDBDBD;" parent="Wm2XCeXN5K-B_ODvsIcr-1" target="Wm2XCeXN5K-B_ODvsIcr-4" edge="1">
          <mxGeometry width="50" height="50" relative="1" as="geometry">
            <mxPoint x="190" y="1350" as="sourcePoint" />
            <mxPoint x="330" y="500" as="targetPoint" />
          </mxGeometry>
        </mxCell>
        <mxCell id="Wm2XCeXN5K-B_ODvsIcr-9" value="" style="endArrow=none;html=1;rounded=1;fontFamily=Helvetica;fontSize=12;fontColor=#FF3333;entryX=0.47;entryY=1.033;entryDx=0;entryDy=0;entryPerimeter=0;strokeWidth=7;strokeColor=#BDBDBD;startArrow=none;" parent="Wm2XCeXN5K-B_ODvsIcr-1" edge="1">
          <mxGeometry width="50" height="50" relative="1" as="geometry">
            <mxPoint x="490" y="1350" as="sourcePoint" />
            <mxPoint x="490" y="310.00000000000006" as="targetPoint" />
          </mxGeometry>
        </mxCell>
        <mxCell id="Wm2XCeXN5K-B_ODvsIcr-10" value="" style="endArrow=none;html=1;rounded=1;fontFamily=Helvetica;fontSize=12;fontColor=#FF3333;entryX=0.47;entryY=1.033;entryDx=0;entryDy=0;entryPerimeter=0;strokeWidth=7;strokeColor=#BDBDBD;startArrow=none;" parent="Wm2XCeXN5K-B_ODvsIcr-1" source="Wm2XCeXN5K-B_ODvsIcr-15" edge="1">
          <mxGeometry width="50" height="50" relative="1" as="geometry">
            <mxPoint x="810" y="1076.04" as="sourcePoint" />
            <mxPoint x="804" y="310" as="targetPoint" />
          </mxGeometry>
        </mxCell>
        <mxCell id="Wm2XCeXN5K-B_ODvsIcr-11" value="" style="endArrow=none;html=1;rounded=1;fontFamily=Helvetica;fontSize=12;fontColor=#FF3333;entryX=0.47;entryY=1.033;entryDx=0;entryDy=0;entryPerimeter=0;strokeWidth=7;strokeColor=#BDBDBD;startArrow=none;" parent="Wm2XCeXN5K-B_ODvsIcr-1" edge="1">
          <mxGeometry width="50" height="50" relative="1" as="geometry">
            <mxPoint x="1140" y="1350" as="sourcePoint" />
            <mxPoint x="1130" y="310" as="targetPoint" />
          </mxGeometry>
        </mxCell>
        <mxCell id="Wm2XCeXN5K-B_ODvsIcr-12" value="Current Feature / Bug / Enhancement Workflow" style="text;html=1;strokeColor=none;fillColor=default;align=center;verticalAlign=middle;whiteSpace=wrap;rounded=0;strokeWidth=4;fontFamily=Helvetica;fontSize=22;fontColor=#616161;fontStyle=1;spacingTop=0;spacing=2;" parent="Wm2XCeXN5K-B_ODvsIcr-1" vertex="1">
          <mxGeometry x="66" y="360" width="600" height="36" as="geometry" />
        </mxCell>
        <mxCell id="Wm2XCeXN5K-B_ODvsIcr-13" value="" style="ellipse;whiteSpace=wrap;html=1;strokeColor=#000000;strokeWidth=2;fontFamily=Helvetica;fontSize=18;fontColor=#616161;fillColor=#99CCFF;" parent="Wm2XCeXN5K-B_ODvsIcr-1" vertex="1">
          <mxGeometry x="797" y="540" width="20" height="20" as="geometry" />
        </mxCell>
        <mxCell id="Wm2XCeXN5K-B_ODvsIcr-14" value="master" style="text;html=1;strokeColor=none;fillColor=none;align=center;verticalAlign=middle;whiteSpace=wrap;rounded=0;strokeWidth=2;fontFamily=Comic Sans MS;fontSize=18;fontColor=#616161;" parent="Wm2XCeXN5K-B_ODvsIcr-1" vertex="1">
          <mxGeometry x="830" y="534" width="60" height="30" as="geometry" />
        </mxCell>
        <mxCell id="Wm2XCeXN5K-B_ODvsIcr-15" value="" style="ellipse;whiteSpace=wrap;html=1;strokeColor=#000000;strokeWidth=2;fontFamily=Helvetica;fontSize=18;fontColor=#616161;fillColor=#99CCFF;" parent="Wm2XCeXN5K-B_ODvsIcr-1" vertex="1">
          <mxGeometry x="797" y="691" width="20" height="20" as="geometry" />
        </mxCell>
        <mxCell id="Wm2XCeXN5K-B_ODvsIcr-16" value="" style="endArrow=none;html=1;rounded=1;fontFamily=Helvetica;fontSize=12;fontColor=#FF3333;entryX=0.47;entryY=1.033;entryDx=0;entryDy=0;entryPerimeter=0;strokeWidth=7;strokeColor=#BDBDBD;" parent="Wm2XCeXN5K-B_ODvsIcr-1" target="Wm2XCeXN5K-B_ODvsIcr-15" edge="1">
          <mxGeometry width="50" height="50" relative="1" as="geometry">
            <mxPoint x="810" y="1348" as="sourcePoint" />
            <mxPoint x="804" y="310" as="targetPoint" />
          </mxGeometry>
        </mxCell>
        <mxCell id="Wm2XCeXN5K-B_ODvsIcr-17" value="feature/EL-####" style="text;html=1;strokeColor=none;fillColor=none;align=center;verticalAlign=middle;whiteSpace=wrap;rounded=0;strokeWidth=2;fontFamily=Comic Sans MS;fontSize=17;fontColor=#616161;" parent="Wm2XCeXN5K-B_ODvsIcr-1" vertex="1">
          <mxGeometry x="816" y="686" width="184" height="30" as="geometry" />
        </mxCell>
        <mxCell id="Wm2XCeXN5K-B_ODvsIcr-18" value="" style="curved=1;endArrow=classic;html=1;rounded=1;strokeColor=#000000;strokeWidth=3;fontFamily=Comic Sans MS;fontSize=18;fontColor=#616161;elbow=vertical;" parent="Wm2XCeXN5K-B_ODvsIcr-1" edge="1">
          <mxGeometry width="50" height="50" relative="1" as="geometry">
            <mxPoint x="820" y="530" as="sourcePoint" />
            <mxPoint x="1110" y="460" as="targetPoint" />
            <Array as="points">
              <mxPoint x="976" y="330" />
            </Array>
          </mxGeometry>
        </mxCell>
        <mxCell id="Wm2XCeXN5K-B_ODvsIcr-19" value="Deploy" style="edgeLabel;html=1;align=center;verticalAlign=middle;resizable=0;points=[];fontSize=18;fontFamily=Comic Sans MS;fontColor=#616161;" parent="Wm2XCeXN5K-B_ODvsIcr-18" vertex="1" connectable="0">
          <mxGeometry x="-0.2938" y="-39" relative="1" as="geometry">
            <mxPoint as="offset" />
          </mxGeometry>
        </mxCell>
        <mxCell id="Wm2XCeXN5K-B_ODvsIcr-20" value="" style="ellipse;whiteSpace=wrap;html=1;strokeColor=#000000;strokeWidth=2;fontFamily=Helvetica;fontSize=18;fontColor=#616161;fillColor=#E5CCFF;" parent="Wm2XCeXN5K-B_ODvsIcr-1" vertex="1">
          <mxGeometry x="1122" y="539" width="20" height="20" as="geometry" />
        </mxCell>
        <mxCell id="Wm2XCeXN5K-B_ODvsIcr-21" value="Production" style="text;html=1;strokeColor=none;fillColor=none;align=center;verticalAlign=middle;whiteSpace=wrap;rounded=0;strokeWidth=2;fontFamily=Comic Sans MS;fontSize=18;fontColor=#616161;" parent="Wm2XCeXN5K-B_ODvsIcr-1" vertex="1">
          <mxGeometry x="1161" y="530" width="60" height="30" as="geometry" />
        </mxCell>
        <mxCell id="Wm2XCeXN5K-B_ODvsIcr-22" value="" style="curved=1;endArrow=classic;html=1;rounded=1;strokeColor=#000000;strokeWidth=3;fontFamily=Comic Sans MS;fontSize=18;fontColor=#616161;elbow=vertical;dashed=1;" parent="Wm2XCeXN5K-B_ODvsIcr-1" edge="1">
          <mxGeometry width="50" height="50" relative="1" as="geometry">
            <mxPoint x="790" y="700" as="sourcePoint" />
            <mxPoint x="780" y="550" as="targetPoint" />
            <Array as="points">
              <mxPoint x="650" y="610" />
            </Array>
          </mxGeometry>
        </mxCell>
        <mxCell id="Wm2XCeXN5K-B_ODvsIcr-23" value="Pull Request" style="edgeLabel;html=1;align=center;verticalAlign=middle;resizable=0;points=[];fontSize=13;fontFamily=Comic Sans MS;fontColor=#616161;" parent="Wm2XCeXN5K-B_ODvsIcr-22" vertex="1" connectable="0">
          <mxGeometry x="-0.2938" y="-39" relative="1" as="geometry">
            <mxPoint y="19" as="offset" />
          </mxGeometry>
        </mxCell>
        <mxCell id="Wm2XCeXN5K-B_ODvsIcr-24" value="" style="curved=1;endArrow=classic;html=1;rounded=1;strokeColor=#000000;strokeWidth=3;fontFamily=Comic Sans MS;fontSize=18;fontColor=#616161;elbow=vertical;" parent="Wm2XCeXN5K-B_ODvsIcr-1" edge="1">
          <mxGeometry width="50" height="50" relative="1" as="geometry">
            <mxPoint x="817" y="719" as="sourcePoint" />
            <mxPoint x="1110" y="710" as="targetPoint" />
            <Array as="points">
              <mxPoint x="981" y="860" />
            </Array>
          </mxGeometry>
        </mxCell>
        <mxCell id="Wm2XCeXN5K-B_ODvsIcr-25" value="Deploy" style="edgeLabel;html=1;align=center;verticalAlign=middle;resizable=0;points=[];fontSize=18;fontFamily=Comic Sans MS;fontColor=#616161;" parent="Wm2XCeXN5K-B_ODvsIcr-24" vertex="1" connectable="0">
          <mxGeometry x="-0.2938" y="-39" relative="1" as="geometry">
            <mxPoint x="69" y="-54" as="offset" />
          </mxGeometry>
        </mxCell>
        <mxCell id="Wm2XCeXN5K-B_ODvsIcr-26" value="" style="ellipse;whiteSpace=wrap;html=1;strokeColor=#000000;strokeWidth=2;fontFamily=Helvetica;fontSize=18;fontColor=#616161;fillColor=#E5CCFF;" parent="Wm2XCeXN5K-B_ODvsIcr-1" vertex="1">
          <mxGeometry x="1123" y="696" width="20" height="20" as="geometry" />
        </mxCell>
        <mxCell id="Wm2XCeXN5K-B_ODvsIcr-27" value="Dev&lt;br&gt;" style="text;html=1;strokeColor=none;fillColor=none;align=center;verticalAlign=middle;whiteSpace=wrap;rounded=0;strokeWidth=2;fontFamily=Comic Sans MS;fontSize=18;fontColor=#616161;" parent="Wm2XCeXN5K-B_ODvsIcr-1" vertex="1">
          <mxGeometry x="1143" y="690" width="67" height="30" as="geometry" />
        </mxCell>
        <mxCell id="Wm2XCeXN5K-B_ODvsIcr-28" value="Current Upgrade Workflow" style="text;html=1;strokeColor=none;fillColor=default;align=center;verticalAlign=middle;whiteSpace=wrap;rounded=0;strokeWidth=4;fontFamily=Helvetica;fontSize=22;fontColor=#616161;fontStyle=1;spacingTop=0;spacing=2;" parent="Wm2XCeXN5K-B_ODvsIcr-1" vertex="1">
          <mxGeometry x="125" y="860" width="300" height="36" as="geometry" />
        </mxCell>
        <mxCell id="Wm2XCeXN5K-B_ODvsIcr-29" value="" style="ellipse;whiteSpace=wrap;html=1;strokeColor=#000000;strokeWidth=2;fontFamily=Helvetica;fontSize=18;fontColor=#616161;fillColor=#FFCC99;" parent="Wm2XCeXN5K-B_ODvsIcr-1" vertex="1">
          <mxGeometry x="174.5" y="1148" width="20" height="20" as="geometry" />
        </mxCell>
        <mxCell id="Wm2XCeXN5K-B_ODvsIcr-30" value="release/1.##" style="text;html=1;strokeColor=none;fillColor=none;align=center;verticalAlign=middle;whiteSpace=wrap;rounded=0;strokeWidth=2;fontFamily=Comic Sans MS;fontSize=18;fontColor=#616161;" parent="Wm2XCeXN5K-B_ODvsIcr-1" vertex="1">
          <mxGeometry x="203.5" y="1143" width="105" height="30" as="geometry" />
        </mxCell>
        <mxCell id="Wm2XCeXN5K-B_ODvsIcr-31" value="" style="ellipse;whiteSpace=wrap;html=1;strokeColor=#000000;strokeWidth=2;fontFamily=Helvetica;fontSize=18;fontColor=#616161;fillColor=#99FF99;" parent="Wm2XCeXN5K-B_ODvsIcr-1" vertex="1">
          <mxGeometry x="483" y="990" width="20" height="20" as="geometry" />
        </mxCell>
        <mxCell id="Wm2XCeXN5K-B_ODvsIcr-32" value="master" style="text;html=1;strokeColor=none;fillColor=none;align=center;verticalAlign=middle;whiteSpace=wrap;rounded=0;strokeWidth=2;fontFamily=Comic Sans MS;fontSize=18;fontColor=#616161;" parent="Wm2XCeXN5K-B_ODvsIcr-1" vertex="1">
          <mxGeometry x="503" y="983" width="85" height="30" as="geometry" />
        </mxCell>
        <mxCell id="Wm2XCeXN5K-B_ODvsIcr-33" value="" style="ellipse;whiteSpace=wrap;html=1;strokeColor=#000000;strokeWidth=2;fontFamily=Helvetica;fontSize=18;fontColor=#616161;fillColor=#99FF99;" parent="Wm2XCeXN5K-B_ODvsIcr-1" vertex="1">
          <mxGeometry x="484" y="1143" width="20" height="20" as="geometry" />
        </mxCell>
        <mxCell id="Wm2XCeXN5K-B_ODvsIcr-34" value="tor-med-v1.##" style="text;html=1;strokeColor=none;fillColor=none;align=center;verticalAlign=middle;whiteSpace=wrap;rounded=0;strokeWidth=2;fontFamily=Comic Sans MS;fontSize=18;fontColor=#616161;" parent="Wm2XCeXN5K-B_ODvsIcr-1" vertex="1">
          <mxGeometry x="499" y="1137" width="167" height="30" as="geometry" />
        </mxCell>
        <mxCell id="Wm2XCeXN5K-B_ODvsIcr-35" value="" style="curved=1;endArrow=none;html=1;rounded=1;strokeColor=#000000;strokeWidth=3;fontFamily=Comic Sans MS;fontSize=18;fontColor=#616161;elbow=vertical;dashed=1;startArrow=classic;startFill=1;endFill=0;" parent="Wm2XCeXN5K-B_ODvsIcr-1" edge="1">
          <mxGeometry width="50" height="50" relative="1" as="geometry">
            <mxPoint x="510" y="1130" as="sourcePoint" />
            <mxPoint x="509.99999999999955" y="1014.9999999999998" as="targetPoint" />
            <Array as="points">
              <mxPoint x="670" y="1080" />
            </Array>
          </mxGeometry>
        </mxCell>
        <mxCell id="Wm2XCeXN5K-B_ODvsIcr-36" value="&lt;font style=&quot;&quot; color=&quot;#ff3333&quot;&gt;&lt;b style=&quot;&quot;&gt;&lt;u style=&quot;&quot;&gt;&lt;font style=&quot;font-size: 15px;&quot;&gt;Step 1.1&lt;/font&gt;&lt;/u&gt;&lt;br style=&quot;font-size: 15px;&quot;&gt;&lt;/b&gt;&lt;/font&gt;Branch" style="edgeLabel;html=1;align=center;verticalAlign=middle;resizable=0;points=[];fontSize=15;fontFamily=Comic Sans MS;fontColor=#616161;" parent="Wm2XCeXN5K-B_ODvsIcr-35" vertex="1" connectable="0">
          <mxGeometry x="-0.2938" y="-39" relative="1" as="geometry">
            <mxPoint x="-58" y="-61" as="offset" />
          </mxGeometry>
        </mxCell>
        <mxCell id="Wm2XCeXN5K-B_ODvsIcr-37" value="" style="curved=1;endArrow=classic;html=1;rounded=1;strokeColor=#000000;strokeWidth=3;fontFamily=Comic Sans MS;fontSize=18;fontColor=#616161;elbow=vertical;" parent="Wm2XCeXN5K-B_ODvsIcr-1" edge="1">
          <mxGeometry width="50" height="50" relative="1" as="geometry">
            <mxPoint x="191.5" y="1172.9999999999998" as="sourcePoint" />
            <mxPoint x="470" y="1160" as="targetPoint" />
            <Array as="points">
              <mxPoint x="320" y="1365" />
            </Array>
          </mxGeometry>
        </mxCell>
        <mxCell id="Wm2XCeXN5K-B_ODvsIcr-38" value="&lt;font style=&quot;font-size: 15px;&quot; color=&quot;#ff3333&quot;&gt;&lt;b style=&quot;font-size: 15px;&quot;&gt;&lt;u style=&quot;font-size: 15px;&quot;&gt;Step 2&lt;/u&gt;&lt;br style=&quot;font-size: 15px;&quot;&gt;&lt;/b&gt;&lt;/font&gt;Merge" style="edgeLabel;html=1;align=center;verticalAlign=middle;resizable=0;points=[];fontSize=15;fontFamily=Comic Sans MS;fontColor=#616161;" parent="Wm2XCeXN5K-B_ODvsIcr-37" vertex="1" connectable="0">
          <mxGeometry x="-0.2938" y="-39" relative="1" as="geometry">
            <mxPoint x="87" y="-64" as="offset" />
          </mxGeometry>
        </mxCell>
        <mxCell id="Wm2XCeXN5K-B_ODvsIcr-39" value="" style="ellipse;whiteSpace=wrap;html=1;strokeColor=#000000;strokeWidth=2;fontFamily=Helvetica;fontSize=18;fontColor=#616161;fillColor=#99CCFF;" parent="Wm2XCeXN5K-B_ODvsIcr-1" vertex="1">
          <mxGeometry x="797" y="989" width="20" height="20" as="geometry" />
        </mxCell>
        <mxCell id="Wm2XCeXN5K-B_ODvsIcr-40" value="master" style="text;html=1;strokeColor=none;fillColor=none;align=center;verticalAlign=middle;whiteSpace=wrap;rounded=0;strokeWidth=2;fontFamily=Comic Sans MS;fontSize=18;fontColor=#616161;" parent="Wm2XCeXN5K-B_ODvsIcr-1" vertex="1">
          <mxGeometry x="830" y="983" width="60" height="30" as="geometry" />
        </mxCell>
        <mxCell id="Wm2XCeXN5K-B_ODvsIcr-41" value="" style="ellipse;whiteSpace=wrap;html=1;strokeColor=#000000;strokeWidth=2;fontFamily=Helvetica;fontSize=18;fontColor=#616161;fillColor=#99CCFF;" parent="Wm2XCeXN5K-B_ODvsIcr-1" vertex="1">
          <mxGeometry x="797" y="1138" width="20" height="20" as="geometry" />
        </mxCell>
        <mxCell id="Wm2XCeXN5K-B_ODvsIcr-42" value="tor-med-v1.##" style="text;html=1;strokeColor=none;fillColor=none;align=center;verticalAlign=middle;whiteSpace=wrap;rounded=0;strokeWidth=2;fontFamily=Comic Sans MS;fontSize=17;fontColor=#616161;" parent="Wm2XCeXN5K-B_ODvsIcr-1" vertex="1">
          <mxGeometry x="816" y="1133" width="184" height="30" as="geometry" />
        </mxCell>
        <mxCell id="Wm2XCeXN5K-B_ODvsIcr-43" value="" style="curved=1;endArrow=none;html=1;rounded=1;strokeColor=#000000;strokeWidth=3;fontFamily=Comic Sans MS;fontSize=18;fontColor=#616161;elbow=vertical;startArrow=classic;startFill=1;endFill=0;" parent="Wm2XCeXN5K-B_ODvsIcr-1" edge="1">
          <mxGeometry width="50" height="50" relative="1" as="geometry">
            <mxPoint x="828" y="1125" as="sourcePoint" />
            <mxPoint x="827.9999999999995" y="1010" as="targetPoint" />
            <Array as="points">
              <mxPoint x="988" y="1075" />
            </Array>
          </mxGeometry>
        </mxCell>
        <mxCell id="Wm2XCeXN5K-B_ODvsIcr-44" value="&lt;font style=&quot;font-size: 15px;&quot; color=&quot;#ff3333&quot;&gt;&lt;b style=&quot;font-size: 15px;&quot;&gt;&lt;u style=&quot;font-size: 15px;&quot;&gt;Step 1.2&lt;/u&gt;&lt;br style=&quot;font-size: 15px;&quot;&gt;&lt;/b&gt;&lt;/font&gt;Branch" style="edgeLabel;html=1;align=center;verticalAlign=middle;resizable=0;points=[];fontSize=15;fontFamily=Comic Sans MS;fontColor=#616161;" parent="Wm2XCeXN5K-B_ODvsIcr-43" vertex="1" connectable="0">
          <mxGeometry x="-0.2938" y="-39" relative="1" as="geometry">
            <mxPoint x="-46" y="-56" as="offset" />
          </mxGeometry>
        </mxCell>
        <mxCell id="Wm2XCeXN5K-B_ODvsIcr-45" value="" style="curved=1;endArrow=classic;html=1;rounded=1;strokeColor=#000000;strokeWidth=3;fontFamily=Comic Sans MS;fontSize=18;fontColor=#616161;elbow=vertical;" parent="Wm2XCeXN5K-B_ODvsIcr-1" edge="1">
          <mxGeometry width="50" height="50" relative="1" as="geometry">
            <mxPoint x="510" y="1181" as="sourcePoint" />
            <mxPoint x="788.5" y="1168" as="targetPoint" />
            <Array as="points">
              <mxPoint x="638.5" y="1373" />
            </Array>
          </mxGeometry>
        </mxCell>
        <mxCell id="Wm2XCeXN5K-B_ODvsIcr-46" value="&lt;font style=&quot;font-size: 15px;&quot; color=&quot;#ff3333&quot;&gt;&lt;b style=&quot;font-size: 15px;&quot;&gt;&lt;u style=&quot;font-size: 15px;&quot;&gt;Step 3&lt;/u&gt;&lt;br style=&quot;font-size: 15px;&quot;&gt;&lt;/b&gt;&lt;/font&gt;Merge" style="edgeLabel;html=1;align=center;verticalAlign=middle;resizable=0;points=[];fontSize=15;fontFamily=Comic Sans MS;fontColor=#616161;" parent="Wm2XCeXN5K-B_ODvsIcr-45" vertex="1" connectable="0">
          <mxGeometry x="-0.2938" y="-39" relative="1" as="geometry">
            <mxPoint x="77" y="-65" as="offset" />
          </mxGeometry>
        </mxCell>
        <mxCell id="Wm2XCeXN5K-B_ODvsIcr-47" value="" style="curved=1;endArrow=classic;html=1;rounded=1;strokeColor=#000000;strokeWidth=3;fontFamily=Comic Sans MS;fontSize=18;fontColor=#616161;elbow=vertical;dashed=1;" parent="Wm2XCeXN5K-B_ODvsIcr-1" edge="1">
          <mxGeometry width="50" height="50" relative="1" as="geometry">
            <mxPoint x="796.9999999999995" y="1132.9999999999998" as="sourcePoint" />
            <mxPoint x="786.9999999999995" y="1017.9999999999998" as="targetPoint" />
            <Array as="points">
              <mxPoint x="657" y="1078" />
            </Array>
          </mxGeometry>
        </mxCell>
        <mxCell id="Wm2XCeXN5K-B_ODvsIcr-48" value="&lt;b style=&quot;font-size: 15px;&quot;&gt;&lt;u style=&quot;font-size: 15px;&quot;&gt;&lt;font color=&quot;#ff3333&quot; style=&quot;font-size: 15px;&quot;&gt;Step 5&lt;/font&gt;&lt;/u&gt;&lt;/b&gt;&lt;br style=&quot;font-size: 15px;&quot;&gt;Pull&lt;br style=&quot;font-size: 15px;&quot;&gt;Request" style="edgeLabel;html=1;align=center;verticalAlign=middle;resizable=0;points=[];fontSize=15;fontFamily=Comic Sans MS;fontColor=#616161;" parent="Wm2XCeXN5K-B_ODvsIcr-47" vertex="1" connectable="0">
          <mxGeometry x="-0.2938" y="-39" relative="1" as="geometry">
            <mxPoint y="19" as="offset" />
          </mxGeometry>
        </mxCell>
        <mxCell id="Wm2XCeXN5K-B_ODvsIcr-49" value="" style="curved=1;endArrow=classic;html=1;rounded=1;strokeColor=#000000;strokeWidth=3;fontFamily=Comic Sans MS;fontSize=18;fontColor=#616161;elbow=vertical;" parent="Wm2XCeXN5K-B_ODvsIcr-1" edge="1">
          <mxGeometry width="50" height="50" relative="1" as="geometry">
            <mxPoint x="826" y="1172" as="sourcePoint" />
            <mxPoint x="1119" y="1162.9999999999998" as="targetPoint" />
            <Array as="points">
              <mxPoint x="990" y="1313" />
            </Array>
          </mxGeometry>
        </mxCell>
        <mxCell id="Wm2XCeXN5K-B_ODvsIcr-50" value="&lt;b style=&quot;font-size: 15px;&quot;&gt;&lt;u style=&quot;font-size: 15px;&quot;&gt;&lt;font color=&quot;#ff3333&quot; style=&quot;font-size: 15px;&quot;&gt;Step 4&lt;/font&gt;&lt;/u&gt;&lt;/b&gt;&lt;br style=&quot;font-size: 15px;&quot;&gt;Deploy" style="edgeLabel;html=1;align=center;verticalAlign=middle;resizable=0;points=[];fontSize=15;fontFamily=Comic Sans MS;fontColor=#616161;" parent="Wm2XCeXN5K-B_ODvsIcr-49" vertex="1" connectable="0">
          <mxGeometry x="-0.2938" y="-39" relative="1" as="geometry">
            <mxPoint x="69" y="-54" as="offset" />
          </mxGeometry>
        </mxCell>
        <mxCell id="Wm2XCeXN5K-B_ODvsIcr-51" value="" style="curved=1;endArrow=classic;html=1;rounded=1;strokeColor=#000000;strokeWidth=3;fontFamily=Comic Sans MS;fontSize=18;fontColor=#616161;elbow=vertical;" parent="Wm2XCeXN5K-B_ODvsIcr-1" edge="1">
          <mxGeometry width="50" height="50" relative="1" as="geometry">
            <mxPoint x="827" y="978.9999999999998" as="sourcePoint" />
            <mxPoint x="1119.9999999999995" y="988.9999999999998" as="targetPoint" />
            <Array as="points">
              <mxPoint x="977" y="839" />
            </Array>
          </mxGeometry>
        </mxCell>
        <mxCell id="Wm2XCeXN5K-B_ODvsIcr-52" value="&lt;b style=&quot;font-size: 15px;&quot;&gt;&lt;u&gt;&lt;font color=&quot;#ff3333&quot;&gt;Step 6&lt;/font&gt;&lt;/u&gt;&lt;/b&gt;&lt;br style=&quot;font-size: 15px;&quot;&gt;&lt;span style=&quot;font-size: 15px;&quot;&gt;Deploy&lt;/span&gt;" style="edgeLabel;html=1;align=center;verticalAlign=middle;resizable=0;points=[];fontSize=18;fontFamily=Comic Sans MS;fontColor=#616161;" parent="Wm2XCeXN5K-B_ODvsIcr-51" vertex="1" connectable="0">
          <mxGeometry x="-0.2938" y="-39" relative="1" as="geometry">
            <mxPoint as="offset" />
          </mxGeometry>
        </mxCell>
        <mxCell id="Wm2XCeXN5K-B_ODvsIcr-53" value="" style="ellipse;whiteSpace=wrap;html=1;strokeColor=#000000;strokeWidth=2;fontFamily=Helvetica;fontSize=18;fontColor=#616161;fillColor=#E5CCFF;" parent="Wm2XCeXN5K-B_ODvsIcr-1" vertex="1">
          <mxGeometry x="1125" y="1008" width="20" height="20" as="geometry" />
        </mxCell>
        <mxCell id="Wm2XCeXN5K-B_ODvsIcr-54" value="Production" style="text;html=1;strokeColor=none;fillColor=none;align=center;verticalAlign=middle;whiteSpace=wrap;rounded=0;strokeWidth=2;fontFamily=Comic Sans MS;fontSize=18;fontColor=#616161;" parent="Wm2XCeXN5K-B_ODvsIcr-1" vertex="1">
          <mxGeometry x="1172" y="999" width="60" height="30" as="geometry" />
        </mxCell>
        <mxCell id="Wm2XCeXN5K-B_ODvsIcr-55" value="" style="ellipse;whiteSpace=wrap;html=1;strokeColor=#000000;strokeWidth=2;fontFamily=Helvetica;fontSize=18;fontColor=#616161;fillColor=#E5CCFF;" parent="Wm2XCeXN5K-B_ODvsIcr-1" vertex="1">
          <mxGeometry x="1126" y="1144" width="20" height="20" as="geometry" />
        </mxCell>
        <mxCell id="Wm2XCeXN5K-B_ODvsIcr-56" value="QA" style="text;html=1;strokeColor=none;fillColor=none;align=center;verticalAlign=middle;whiteSpace=wrap;rounded=0;strokeWidth=2;fontFamily=Comic Sans MS;fontSize=18;fontColor=#616161;" parent="Wm2XCeXN5K-B_ODvsIcr-1" vertex="1">
          <mxGeometry x="1149" y="1138" width="60" height="30" as="geometry" />
        </mxCell>
        <mxCell id="Wm2XCeXN5K-B_ODvsIcr-57" value="" style="curved=1;endArrow=none;html=1;rounded=1;strokeColor=#000000;strokeWidth=3;fontFamily=Comic Sans MS;fontSize=18;fontColor=#616161;elbow=vertical;startArrow=classic;startFill=1;endFill=0;entryX=0.25;entryY=1;entryDx=0;entryDy=0;exitX=0.143;exitY=-0.075;exitDx=0;exitDy=0;exitPerimeter=0;" parent="Wm2XCeXN5K-B_ODvsIcr-1" source="Wm2XCeXN5K-B_ODvsIcr-17" target="Wm2XCeXN5K-B_ODvsIcr-14" edge="1">
          <mxGeometry width="50" height="50" relative="1" as="geometry">
            <mxPoint x="828" y="665" as="sourcePoint" />
            <mxPoint x="827.9999999999995" y="550" as="targetPoint" />
            <Array as="points">
              <mxPoint x="988" y="615" />
            </Array>
          </mxGeometry>
        </mxCell>
        <mxCell id="Wm2XCeXN5K-B_ODvsIcr-58" value="Branch" style="edgeLabel;html=1;align=center;verticalAlign=middle;resizable=0;points=[];fontSize=15;fontFamily=Comic Sans MS;fontColor=#616161;" parent="Wm2XCeXN5K-B_ODvsIcr-57" vertex="1" connectable="0">
          <mxGeometry x="-0.2938" y="-39" relative="1" as="geometry">
            <mxPoint x="-46" y="-56" as="offset" />
          </mxGeometry>
        </mxCell>
        <mxCell id="Wm2XCeXN5K-B_ODvsIcr-98" value="" style="ellipse;whiteSpace=wrap;html=1;strokeColor=#000000;strokeWidth=2;fontFamily=Helvetica;fontSize=18;fontColor=#616161;fillColor=#E5CCFF;" parent="Wm2XCeXN5K-B_ODvsIcr-1" vertex="1">
          <mxGeometry x="1123" y="499" width="20" height="20" as="geometry" />
        </mxCell>
        <mxCell id="Wm2XCeXN5K-B_ODvsIcr-99" value="UAT" style="text;html=1;strokeColor=none;fillColor=none;align=center;verticalAlign=middle;whiteSpace=wrap;rounded=0;strokeWidth=2;fontFamily=Comic Sans MS;fontSize=18;fontColor=#616161;" parent="Wm2XCeXN5K-B_ODvsIcr-1" vertex="1">
          <mxGeometry x="1149" y="489" width="60" height="30" as="geometry" />
        </mxCell>
        <mxCell id="Wm2XCeXN5K-B_ODvsIcr-100" value="" style="ellipse;whiteSpace=wrap;html=1;strokeColor=#000000;strokeWidth=2;fontFamily=Helvetica;fontSize=18;fontColor=#616161;fillColor=#E5CCFF;" parent="Wm2XCeXN5K-B_ODvsIcr-1" vertex="1">
          <mxGeometry x="1126" y="969" width="20" height="20" as="geometry" />
        </mxCell>
        <mxCell id="Wm2XCeXN5K-B_ODvsIcr-101" value="UAT" style="text;html=1;strokeColor=none;fillColor=none;align=center;verticalAlign=middle;whiteSpace=wrap;rounded=0;strokeWidth=2;fontFamily=Comic Sans MS;fontSize=18;fontColor=#616161;" parent="Wm2XCeXN5K-B_ODvsIcr-1" vertex="1">
          <mxGeometry x="1165" y="960" width="60" height="30" as="geometry" />
        </mxCell>
        <mxCell id="Wm2XCeXN5K-B_ODvsIcr-102" value="" style="ellipse;whiteSpace=wrap;html=1;strokeColor=#000000;strokeWidth=2;fontFamily=Helvetica;fontSize=18;fontColor=#616161;fillColor=#E5CCFF;" parent="Wm2XCeXN5K-B_ODvsIcr-1" vertex="1">
          <mxGeometry x="1122" y="459" width="20" height="20" as="geometry" />
        </mxCell>
        <mxCell id="Wm2XCeXN5K-B_ODvsIcr-103" value="QA" style="text;html=1;strokeColor=none;fillColor=none;align=center;verticalAlign=middle;whiteSpace=wrap;rounded=0;strokeWidth=2;fontFamily=Comic Sans MS;fontSize=18;fontColor=#616161;" parent="Wm2XCeXN5K-B_ODvsIcr-1" vertex="1">
          <mxGeometry x="1143" y="449" width="60" height="30" as="geometry" />
        </mxCell>
        <mxCell id="Wm2XCeXN5K-B_ODvsIcr-107" value="" style="curved=1;endArrow=classic;html=1;rounded=1;strokeColor=#000000;strokeWidth=3;fontFamily=Comic Sans MS;fontSize=18;fontColor=#616161;elbow=vertical;entryX=0.5;entryY=1;entryDx=0;entryDy=0;" parent="Wm2XCeXN5K-B_ODvsIcr-1" edge="1">
          <mxGeometry width="50" height="50" relative="1" as="geometry">
            <mxPoint x="1168" y="453" as="sourcePoint" />
            <mxPoint x="1192" y="462" as="targetPoint" />
            <Array as="points">
              <mxPoint x="1219" y="373" />
              <mxPoint x="1259" y="373" />
              <mxPoint x="1279" y="403" />
              <mxPoint x="1289" y="447" />
            </Array>
          </mxGeometry>
        </mxCell>
        <mxCell id="Wm2XCeXN5K-B_ODvsIcr-108" value="Test" style="edgeLabel;html=1;align=center;verticalAlign=middle;resizable=0;points=[];fontSize=18;fontFamily=Comic Sans MS;fontColor=#616161;" parent="Wm2XCeXN5K-B_ODvsIcr-107" vertex="1" connectable="0">
          <mxGeometry x="-0.2938" y="-39" relative="1" as="geometry">
            <mxPoint x="40" y="-22" as="offset" />
          </mxGeometry>
        </mxCell>
        <mxCell id="Wm2XCeXN5K-B_ODvsIcr-109" value="" style="curved=1;endArrow=classic;html=1;rounded=1;strokeColor=#000000;strokeWidth=3;fontFamily=Comic Sans MS;fontSize=18;fontColor=#616161;elbow=vertical;" parent="Wm2XCeXN5K-B_ODvsIcr-1" edge="1">
          <mxGeometry width="50" height="50" relative="1" as="geometry">
            <mxPoint x="830" y="540" as="sourcePoint" />
            <mxPoint x="1120" y="510" as="targetPoint" />
            <Array as="points">
              <mxPoint x="986" y="340" />
            </Array>
          </mxGeometry>
        </mxCell>
        <mxCell id="Wm2XCeXN5K-B_ODvsIcr-110" value="Deploy" style="edgeLabel;html=1;align=center;verticalAlign=middle;resizable=0;points=[];fontSize=18;fontFamily=Comic Sans MS;fontColor=#616161;" parent="Wm2XCeXN5K-B_ODvsIcr-109" vertex="1" connectable="0">
          <mxGeometry x="-0.2938" y="-39" relative="1" as="geometry">
            <mxPoint as="offset" />
          </mxGeometry>
        </mxCell>
        <mxCell id="Wm2XCeXN5K-B_ODvsIcr-111" value="" style="curved=1;endArrow=classic;html=1;rounded=0;fontSize=15;strokeWidth=3;" parent="Wm2XCeXN5K-B_ODvsIcr-1" edge="1">
          <mxGeometry width="50" height="50" relative="1" as="geometry">
            <mxPoint x="1080" y="470" as="sourcePoint" />
            <mxPoint x="1110" y="550" as="targetPoint" />
            <Array as="points">
              <mxPoint x="1040" y="520" />
              <mxPoint x="1080" y="550" />
            </Array>
          </mxGeometry>
        </mxCell>
      </root>
    </mxGraphModel>
  </diagram>
  <diagram name="Future Workflow" id="6y-kqChdAjQBgggZEam2">
    <mxGraphModel dx="2220" dy="1156" grid="1" gridSize="10" guides="1" tooltips="1" connect="1" arrows="1" fold="1" page="1" pageScale="1" pageWidth="850" pageHeight="1100" math="0" shadow="0">
      <root>
        <mxCell id="X2ivvi31KN47xsV-MIe9-0" />
        <mxCell id="X2ivvi31KN47xsV-MIe9-1" parent="X2ivvi31KN47xsV-MIe9-0" />
        <mxCell id="X2ivvi31KN47xsV-MIe9-4" value="&lt;font face=&quot;Verdana&quot;&gt;&lt;b&gt;&lt;font style=&quot;font-size: 12px;&quot;&gt;Elentra Consortium&lt;/font&gt;&lt;/b&gt;&lt;br&gt;ElentraProject:elentra-1x-me&lt;br&gt;&lt;br&gt;consortium&lt;br&gt;&lt;/font&gt;" style="rounded=1;whiteSpace=wrap;html=1;strokeColor=#FF8000;strokeWidth=4;" parent="X2ivvi31KN47xsV-MIe9-1" vertex="1">
          <mxGeometry x="90" y="190" width="200" height="120" as="geometry" />
        </mxCell>
        <mxCell id="X2ivvi31KN47xsV-MIe9-5" value="&lt;font face=&quot;Verdana&quot;&gt;&lt;b&gt;&lt;font style=&quot;font-size: 12px;&quot;&gt;Institutional Fork&lt;/font&gt;&lt;/b&gt;&lt;br&gt;DiscoveryCommons:elentra-1x-me&lt;br&gt;&lt;br&gt;upstream&lt;br&gt;&lt;/font&gt;" style="rounded=1;whiteSpace=wrap;html=1;strokeColor=#00CC66;strokeWidth=4;" parent="X2ivvi31KN47xsV-MIe9-1" vertex="1">
          <mxGeometry x="370" y="190" width="230" height="120" as="geometry" />
        </mxCell>
        <mxCell id="X2ivvi31KN47xsV-MIe9-6" value="&lt;font face=&quot;Verdana&quot;&gt;&lt;b&gt;&lt;font style=&quot;font-size: 12px;&quot;&gt;Development&lt;/font&gt;&lt;/b&gt;&lt;br&gt;DiscoveryCommons:elentra-1x-me-dev&lt;br&gt;&lt;br&gt;origin&lt;br&gt;&lt;/font&gt;" style="rounded=1;whiteSpace=wrap;html=1;strokeColor=#3399FF;strokeWidth=4;" parent="X2ivvi31KN47xsV-MIe9-1" vertex="1">
          <mxGeometry x="677" y="190" width="260" height="120" as="geometry" />
        </mxCell>
        <mxCell id="X2ivvi31KN47xsV-MIe9-7" value="&lt;font face=&quot;Verdana&quot;&gt;&lt;b&gt;&lt;font style=&quot;font-size: 12px;&quot;&gt;U of T Installation of Elentra&lt;/font&gt;&lt;/b&gt;&lt;br&gt;Servers managed by Central IT&lt;br&gt;&lt;/font&gt;" style="rounded=1;whiteSpace=wrap;html=1;strokeColor=#6600CC;strokeWidth=4;" parent="X2ivvi31KN47xsV-MIe9-1" vertex="1">
          <mxGeometry x="1000" y="190" width="260" height="120" as="geometry" />
        </mxCell>
        <mxCell id="X2ivvi31KN47xsV-MIe9-8" value="" style="endArrow=none;html=1;rounded=1;fontFamily=Helvetica;fontSize=12;fontColor=#FF3333;entryX=0.47;entryY=1.033;entryDx=0;entryDy=0;entryPerimeter=0;strokeWidth=7;strokeColor=#BDBDBD;" parent="X2ivvi31KN47xsV-MIe9-1" target="X2ivvi31KN47xsV-MIe9-4" edge="1">
          <mxGeometry width="50" height="50" relative="1" as="geometry">
            <mxPoint x="184" y="1370" as="sourcePoint" />
            <mxPoint x="330" y="500" as="targetPoint" />
          </mxGeometry>
        </mxCell>
        <mxCell id="X2ivvi31KN47xsV-MIe9-9" value="" style="endArrow=none;html=1;rounded=1;fontFamily=Helvetica;fontSize=12;fontColor=#FF3333;entryX=0.47;entryY=1.033;entryDx=0;entryDy=0;entryPerimeter=0;strokeWidth=7;strokeColor=#BDBDBD;startArrow=none;" parent="X2ivvi31KN47xsV-MIe9-1" edge="1">
          <mxGeometry width="50" height="50" relative="1" as="geometry">
            <mxPoint x="494" y="1380" as="sourcePoint" />
            <mxPoint x="490" y="310.00000000000006" as="targetPoint" />
          </mxGeometry>
        </mxCell>
        <mxCell id="X2ivvi31KN47xsV-MIe9-10" value="" style="endArrow=none;html=1;rounded=1;fontFamily=Helvetica;fontSize=12;fontColor=#FF3333;entryX=0.47;entryY=1.033;entryDx=0;entryDy=0;entryPerimeter=0;strokeWidth=7;strokeColor=#BDBDBD;startArrow=none;" parent="X2ivvi31KN47xsV-MIe9-1" edge="1">
          <mxGeometry width="50" height="50" relative="1" as="geometry">
            <mxPoint x="810" y="1370" as="sourcePoint" />
            <mxPoint x="804" y="310" as="targetPoint" />
          </mxGeometry>
        </mxCell>
        <mxCell id="X2ivvi31KN47xsV-MIe9-11" value="" style="endArrow=none;html=1;rounded=1;fontFamily=Helvetica;fontSize=12;fontColor=#FF3333;entryX=0.47;entryY=1.033;entryDx=0;entryDy=0;entryPerimeter=0;strokeWidth=7;strokeColor=#BDBDBD;startArrow=none;" parent="X2ivvi31KN47xsV-MIe9-1" edge="1">
          <mxGeometry width="50" height="50" relative="1" as="geometry">
            <mxPoint x="1140" y="1390" as="sourcePoint" />
            <mxPoint x="1130" y="310" as="targetPoint" />
          </mxGeometry>
        </mxCell>
        <mxCell id="_Rghln-YgF1-al7HNQhC-2" value="Desired Workflow" style="text;html=1;strokeColor=none;fillColor=default;align=center;verticalAlign=middle;whiteSpace=wrap;rounded=0;strokeWidth=4;fontFamily=Helvetica;fontSize=22;fontColor=#616161;fontStyle=1;spacingTop=0;spacing=2;" parent="X2ivvi31KN47xsV-MIe9-1" vertex="1">
          <mxGeometry x="93" y="330" width="290" height="36" as="geometry" />
        </mxCell>
        <mxCell id="_Rghln-YgF1-al7HNQhC-3" value="" style="ellipse;whiteSpace=wrap;html=1;strokeColor=#000000;strokeWidth=2;fontFamily=Helvetica;fontSize=18;fontColor=#616161;fillColor=#FFCC99;" parent="X2ivvi31KN47xsV-MIe9-1" vertex="1">
          <mxGeometry x="176" y="625" width="20" height="20" as="geometry" />
        </mxCell>
        <mxCell id="_Rghln-YgF1-al7HNQhC-4" value="master" style="text;html=1;strokeColor=none;fillColor=none;align=center;verticalAlign=middle;whiteSpace=wrap;rounded=0;strokeWidth=2;fontFamily=Comic Sans MS;fontSize=18;fontColor=#616161;" parent="X2ivvi31KN47xsV-MIe9-1" vertex="1">
          <mxGeometry x="203.25" y="620" width="69.5" height="30" as="geometry" />
        </mxCell>
        <mxCell id="_Rghln-YgF1-al7HNQhC-5" value="feature/EL-####&lt;br&gt;&lt;font style=&quot;font-size: 13px;&quot;&gt;&lt;span style=&quot;white-space: pre;&quot;&gt; &lt;/span&gt;This branch should be created from &lt;span style=&quot;white-space: pre;&quot;&gt; &lt;/span&gt;master so that we don&#39;t bring in &lt;span style=&quot;white-space: pre;&quot;&gt; &lt;/span&gt;unstable code from Consortium&#39;s &lt;span style=&quot;white-space: pre;&quot;&gt; &lt;/span&gt;develop branch&lt;/font&gt;" style="text;html=1;strokeColor=none;fillColor=none;align=left;verticalAlign=top;whiteSpace=wrap;rounded=0;strokeWidth=2;fontFamily=Comic Sans MS;fontSize=18;fontColor=#616161;" parent="X2ivvi31KN47xsV-MIe9-1" vertex="1">
          <mxGeometry x="516" y="610" width="271" height="70" as="geometry" />
        </mxCell>
        <mxCell id="_Rghln-YgF1-al7HNQhC-6" value="" style="curved=1;endArrow=classic;html=1;rounded=1;strokeColor=#000000;strokeWidth=3;fontFamily=Comic Sans MS;fontSize=18;fontColor=#616161;elbow=vertical;" parent="X2ivvi31KN47xsV-MIe9-1" edge="1">
          <mxGeometry width="50" height="50" relative="1" as="geometry">
            <mxPoint x="502.5" y="615" as="sourcePoint" />
            <mxPoint x="1117" y="615" as="targetPoint" />
            <Array as="points">
              <mxPoint x="813.5" y="348" />
            </Array>
          </mxGeometry>
        </mxCell>
        <mxCell id="_Rghln-YgF1-al7HNQhC-7" value="Deploy" style="edgeLabel;html=1;align=center;verticalAlign=middle;resizable=0;points=[];fontSize=18;fontFamily=Comic Sans MS;fontColor=#616161;" parent="_Rghln-YgF1-al7HNQhC-6" vertex="1" connectable="0">
          <mxGeometry x="-0.2938" y="-39" relative="1" as="geometry">
            <mxPoint x="48" y="22" as="offset" />
          </mxGeometry>
        </mxCell>
        <mxCell id="_Rghln-YgF1-al7HNQhC-8" value="Dev&lt;br&gt;&lt;font style=&quot;font-size: 14px;&quot;&gt;(Shared by all engineers. Possible to overwrite each other&#39;s changes)&lt;/font&gt;" style="text;html=1;strokeColor=none;fillColor=none;align=center;verticalAlign=middle;whiteSpace=wrap;rounded=0;strokeWidth=2;fontFamily=Comic Sans MS;fontSize=18;fontColor=#616161;" parent="X2ivvi31KN47xsV-MIe9-1" vertex="1">
          <mxGeometry x="1153.5" y="615" width="195.5" height="30" as="geometry" />
        </mxCell>
        <mxCell id="_Rghln-YgF1-al7HNQhC-9" value="" style="curved=1;endArrow=classic;html=1;rounded=1;strokeColor=#000000;strokeWidth=3;fontFamily=Comic Sans MS;fontSize=18;fontColor=#616161;elbow=vertical;dashed=1;entryX=0;entryY=1;entryDx=0;entryDy=0;" parent="X2ivvi31KN47xsV-MIe9-1" target="_Rghln-YgF1-al7HNQhC-42" edge="1">
          <mxGeometry width="50" height="50" relative="1" as="geometry">
            <mxPoint x="477" y="640" as="sourcePoint" />
            <mxPoint x="227" y="770" as="targetPoint" />
            <Array as="points">
              <mxPoint x="357" y="820" />
            </Array>
          </mxGeometry>
        </mxCell>
        <mxCell id="_Rghln-YgF1-al7HNQhC-10" value="Pull Request" style="edgeLabel;html=1;align=center;verticalAlign=middle;resizable=0;points=[];fontSize=13;fontFamily=Comic Sans MS;fontColor=#616161;" parent="_Rghln-YgF1-al7HNQhC-9" vertex="1" connectable="0">
          <mxGeometry x="-0.2938" y="-39" relative="1" as="geometry">
            <mxPoint x="-5" y="51" as="offset" />
          </mxGeometry>
        </mxCell>
        <mxCell id="_Rghln-YgF1-al7HNQhC-11" value="" style="curved=1;endArrow=classic;html=1;rounded=1;strokeColor=#000000;strokeWidth=3;fontFamily=Comic Sans MS;fontSize=18;fontColor=#616161;elbow=vertical;" parent="X2ivvi31KN47xsV-MIe9-1" edge="1">
          <mxGeometry width="50" height="50" relative="1" as="geometry">
            <mxPoint x="505" y="1018.9999999999995" as="sourcePoint" />
            <mxPoint x="1127" y="1020" as="targetPoint" />
            <Array as="points">
              <mxPoint x="812" y="840" />
            </Array>
          </mxGeometry>
        </mxCell>
        <mxCell id="_Rghln-YgF1-al7HNQhC-12" value="Deploy" style="edgeLabel;html=1;align=center;verticalAlign=middle;resizable=0;points=[];fontSize=18;fontFamily=Comic Sans MS;fontColor=#616161;" parent="_Rghln-YgF1-al7HNQhC-11" vertex="1" connectable="0">
          <mxGeometry x="-0.2938" y="-39" relative="1" as="geometry">
            <mxPoint x="70" y="5" as="offset" />
          </mxGeometry>
        </mxCell>
        <mxCell id="_Rghln-YgF1-al7HNQhC-13" value="" style="ellipse;whiteSpace=wrap;html=1;strokeColor=#000000;strokeWidth=2;fontFamily=Helvetica;fontSize=18;fontColor=#616161;fillColor=#E5CCFF;" parent="X2ivvi31KN47xsV-MIe9-1" vertex="1">
          <mxGeometry x="1133.5" y="1015" width="20" height="20" as="geometry" />
        </mxCell>
        <mxCell id="_Rghln-YgF1-al7HNQhC-15" value="QA" style="text;html=1;strokeColor=none;fillColor=none;align=center;verticalAlign=middle;whiteSpace=wrap;rounded=0;strokeWidth=2;fontFamily=Comic Sans MS;fontSize=18;fontColor=#616161;" parent="X2ivvi31KN47xsV-MIe9-1" vertex="1">
          <mxGeometry x="1159" y="1010" width="34" height="30" as="geometry" />
        </mxCell>
        <mxCell id="_Rghln-YgF1-al7HNQhC-16" value="" style="curved=1;endArrow=classic;html=1;rounded=1;strokeColor=#000000;strokeWidth=3;fontFamily=Comic Sans MS;fontSize=14;fontColor=#FF3333;elbow=vertical;" parent="X2ivvi31KN47xsV-MIe9-1" edge="1">
          <mxGeometry width="50" height="50" relative="1" as="geometry">
            <mxPoint x="477" y="1047" as="sourcePoint" />
            <mxPoint x="477" y="1210" as="targetPoint" />
            <Array as="points">
              <mxPoint x="407" y="1120" />
            </Array>
          </mxGeometry>
        </mxCell>
        <mxCell id="_Rghln-YgF1-al7HNQhC-17" value="&lt;span style=&quot;color: rgb(97, 97, 97); font-size: 15px;&quot;&gt;Tag&lt;/span&gt;" style="edgeLabel;html=1;align=center;verticalAlign=middle;resizable=0;points=[];fontSize=14;fontFamily=Comic Sans MS;fontColor=#FF3333;" parent="_Rghln-YgF1-al7HNQhC-16" vertex="1" connectable="0">
          <mxGeometry x="0.6007" y="15" relative="1" as="geometry">
            <mxPoint x="-17" y="-41" as="offset" />
          </mxGeometry>
        </mxCell>
        <mxCell id="_Rghln-YgF1-al7HNQhC-18" value="" style="ellipse;whiteSpace=wrap;html=1;strokeColor=#000000;strokeWidth=2;fontFamily=Helvetica;fontSize=18;fontColor=#616161;fillColor=#99FF99;" parent="X2ivvi31KN47xsV-MIe9-1" vertex="1">
          <mxGeometry x="485" y="1027" width="20" height="20" as="geometry" />
        </mxCell>
        <mxCell id="_Rghln-YgF1-al7HNQhC-19" value="master" style="text;html=1;strokeColor=none;fillColor=none;align=center;verticalAlign=middle;whiteSpace=wrap;rounded=0;strokeWidth=2;fontFamily=Comic Sans MS;fontSize=18;fontColor=#616161;" parent="X2ivvi31KN47xsV-MIe9-1" vertex="1">
          <mxGeometry x="516" y="1022" width="69" height="30" as="geometry" />
        </mxCell>
        <mxCell id="_Rghln-YgF1-al7HNQhC-20" value="" style="ellipse;whiteSpace=wrap;html=1;strokeColor=#000000;strokeWidth=2;fontFamily=Helvetica;fontSize=18;fontColor=#616161;fillColor=#FFCC99;" parent="X2ivvi31KN47xsV-MIe9-1" vertex="1">
          <mxGeometry x="176" y="1027" width="20" height="20" as="geometry" />
        </mxCell>
        <mxCell id="_Rghln-YgF1-al7HNQhC-21" value="master" style="text;html=1;strokeColor=none;fillColor=none;align=center;verticalAlign=middle;whiteSpace=wrap;rounded=0;strokeWidth=2;fontFamily=Comic Sans MS;fontSize=18;fontColor=#616161;" parent="X2ivvi31KN47xsV-MIe9-1" vertex="1">
          <mxGeometry x="203.25" y="1022" width="69.5" height="30" as="geometry" />
        </mxCell>
        <mxCell id="_Rghln-YgF1-al7HNQhC-22" value="" style="curved=1;endArrow=classic;html=1;rounded=1;strokeColor=#000000;strokeWidth=3;fontFamily=Comic Sans MS;fontSize=18;fontColor=#616161;elbow=vertical;" parent="X2ivvi31KN47xsV-MIe9-1" edge="1">
          <mxGeometry width="50" height="50" relative="1" as="geometry">
            <mxPoint x="200.5" y="1020" as="sourcePoint" />
            <mxPoint x="457" y="1028" as="targetPoint" />
            <Array as="points">
              <mxPoint x="317" y="880" />
            </Array>
          </mxGeometry>
        </mxCell>
        <mxCell id="_Rghln-YgF1-al7HNQhC-23" value="Sync fork&lt;br&gt;for releases" style="edgeLabel;html=1;align=center;verticalAlign=middle;resizable=0;points=[];fontSize=18;fontFamily=Comic Sans MS;fontColor=#616161;" parent="_Rghln-YgF1-al7HNQhC-22" vertex="1" connectable="0">
          <mxGeometry x="-0.2938" y="-39" relative="1" as="geometry">
            <mxPoint y="8" as="offset" />
          </mxGeometry>
        </mxCell>
        <mxCell id="_Rghln-YgF1-al7HNQhC-24" value="" style="ellipse;whiteSpace=wrap;html=1;strokeColor=#000000;strokeWidth=2;fontFamily=Helvetica;fontSize=18;fontColor=#616161;fillColor=#99FF99;" parent="X2ivvi31KN47xsV-MIe9-1" vertex="1">
          <mxGeometry x="481" y="620" width="20" height="20" as="geometry" />
        </mxCell>
        <mxCell id="_Rghln-YgF1-al7HNQhC-25" value="" style="curved=1;endArrow=classic;html=1;rounded=1;strokeColor=#000000;strokeWidth=3;fontFamily=Comic Sans MS;fontSize=18;fontColor=#616161;elbow=vertical;" parent="X2ivvi31KN47xsV-MIe9-1" edge="1">
          <mxGeometry width="50" height="50" relative="1" as="geometry">
            <mxPoint x="200.5" y="610" as="sourcePoint" />
            <mxPoint x="457" y="618" as="targetPoint" />
            <Array as="points">
              <mxPoint x="317" y="470" />
            </Array>
          </mxGeometry>
        </mxCell>
        <mxCell id="_Rghln-YgF1-al7HNQhC-26" value="Branch" style="edgeLabel;html=1;align=center;verticalAlign=middle;resizable=0;points=[];fontSize=18;fontFamily=Comic Sans MS;fontColor=#616161;" parent="_Rghln-YgF1-al7HNQhC-25" vertex="1" connectable="0">
          <mxGeometry x="-0.2938" y="-39" relative="1" as="geometry">
            <mxPoint x="29" y="109" as="offset" />
          </mxGeometry>
        </mxCell>
        <mxCell id="_Rghln-YgF1-al7HNQhC-27" value="" style="ellipse;whiteSpace=wrap;html=1;strokeColor=#000000;strokeWidth=2;fontFamily=Helvetica;fontSize=18;fontColor=#616161;fillColor=#E5CCFF;" parent="X2ivvi31KN47xsV-MIe9-1" vertex="1">
          <mxGeometry x="1131" y="620" width="20" height="20" as="geometry" />
        </mxCell>
        <mxCell id="_Rghln-YgF1-al7HNQhC-28" value="" style="curved=1;endArrow=classic;html=1;rounded=1;strokeColor=#000000;strokeWidth=3;fontFamily=Comic Sans MS;fontSize=14;fontColor=#FF3333;elbow=vertical;" parent="X2ivvi31KN47xsV-MIe9-1" edge="1">
          <mxGeometry width="50" height="50" relative="1" as="geometry">
            <mxPoint x="507" y="660" as="sourcePoint" />
            <mxPoint x="507" y="1000" as="targetPoint" />
            <Array as="points">
              <mxPoint x="607" y="790" />
            </Array>
          </mxGeometry>
        </mxCell>
        <mxCell id="_Rghln-YgF1-al7HNQhC-29" value="&lt;span style=&quot;color: rgb(97, 97, 97); font-size: 15px;&quot;&gt;Merge&lt;/span&gt;" style="edgeLabel;html=1;align=center;verticalAlign=middle;resizable=0;points=[];fontSize=14;fontFamily=Comic Sans MS;fontColor=#FF3333;" parent="_Rghln-YgF1-al7HNQhC-28" vertex="1" connectable="0">
          <mxGeometry x="0.6007" y="15" relative="1" as="geometry">
            <mxPoint x="1" y="-142" as="offset" />
          </mxGeometry>
        </mxCell>
        <mxCell id="_Rghln-YgF1-al7HNQhC-30" value="v1.##.yyyymmdd" style="text;html=1;strokeColor=none;fillColor=none;align=center;verticalAlign=middle;whiteSpace=wrap;rounded=0;strokeWidth=2;fontFamily=Comic Sans MS;fontSize=18;fontColor=#616161;" parent="X2ivvi31KN47xsV-MIe9-1" vertex="1">
          <mxGeometry x="519" y="1210" width="121" height="30" as="geometry" />
        </mxCell>
        <mxCell id="_Rghln-YgF1-al7HNQhC-31" value="" style="ellipse;whiteSpace=wrap;html=1;strokeColor=#000000;strokeWidth=2;fontFamily=Helvetica;fontSize=18;fontColor=#616161;fillColor=#99FF99;" parent="X2ivvi31KN47xsV-MIe9-1" vertex="1">
          <mxGeometry x="485" y="1215" width="20" height="20" as="geometry" />
        </mxCell>
        <mxCell id="_Rghln-YgF1-al7HNQhC-33" value="" style="curved=1;endArrow=classic;html=1;rounded=1;strokeColor=#000000;strokeWidth=3;fontFamily=Comic Sans MS;fontSize=18;fontColor=#616161;elbow=vertical;exitX=0;exitY=1;exitDx=0;exitDy=0;" parent="X2ivvi31KN47xsV-MIe9-1" source="_Rghln-YgF1-al7HNQhC-30" edge="1">
          <mxGeometry width="50" height="50" relative="1" as="geometry">
            <mxPoint x="496" y="1248.9999999999995" as="sourcePoint" />
            <mxPoint x="1117" y="1260" as="targetPoint" />
            <Array as="points">
              <mxPoint x="827" y="1350" />
            </Array>
          </mxGeometry>
        </mxCell>
        <mxCell id="_Rghln-YgF1-al7HNQhC-34" value="Deploy" style="edgeLabel;html=1;align=center;verticalAlign=middle;resizable=0;points=[];fontSize=18;fontFamily=Comic Sans MS;fontColor=#616161;" parent="_Rghln-YgF1-al7HNQhC-33" vertex="1" connectable="0">
          <mxGeometry x="-0.2938" y="-39" relative="1" as="geometry">
            <mxPoint x="89" y="-57" as="offset" />
          </mxGeometry>
        </mxCell>
        <mxCell id="_Rghln-YgF1-al7HNQhC-35" value="" style="ellipse;whiteSpace=wrap;html=1;strokeColor=#000000;strokeWidth=2;fontFamily=Helvetica;fontSize=18;fontColor=#616161;fillColor=#E5CCFF;" parent="X2ivvi31KN47xsV-MIe9-1" vertex="1">
          <mxGeometry x="1131" y="1205" width="20" height="20" as="geometry" />
        </mxCell>
        <mxCell id="_Rghln-YgF1-al7HNQhC-36" value="UAT&lt;br&gt;&lt;font style=&quot;font-size: 14px;&quot;&gt;(Should always be a mirror of Production. To be used primarily by non-DC users, for training, demo, etc.)&lt;/font&gt;" style="text;html=1;strokeColor=none;fillColor=none;align=center;verticalAlign=middle;whiteSpace=wrap;rounded=0;strokeWidth=2;fontFamily=Comic Sans MS;fontSize=18;fontColor=#616161;" parent="X2ivvi31KN47xsV-MIe9-1" vertex="1">
          <mxGeometry x="1156.5" y="1200" width="320.5" height="30" as="geometry" />
        </mxCell>
        <mxCell id="_Rghln-YgF1-al7HNQhC-37" value="Production" style="text;html=1;strokeColor=none;fillColor=none;align=center;verticalAlign=middle;whiteSpace=wrap;rounded=0;strokeWidth=2;fontFamily=Comic Sans MS;fontSize=18;fontColor=#616161;" parent="X2ivvi31KN47xsV-MIe9-1" vertex="1">
          <mxGeometry x="1184" y="1265" width="34" height="30" as="geometry" />
        </mxCell>
        <mxCell id="_Rghln-YgF1-al7HNQhC-38" value="" style="ellipse;whiteSpace=wrap;html=1;strokeColor=#000000;strokeWidth=2;fontFamily=Helvetica;fontSize=18;fontColor=#616161;fillColor=#E5CCFF;" parent="X2ivvi31KN47xsV-MIe9-1" vertex="1">
          <mxGeometry x="1131" y="1270" width="20" height="20" as="geometry" />
        </mxCell>
        <mxCell id="_Rghln-YgF1-al7HNQhC-39" value="&lt;i style=&quot;font-size: 20px;&quot;&gt;&lt;font color=&quot;#465e75&quot;&gt;Feature Development&lt;/font&gt;&lt;/i&gt;" style="text;html=1;strokeColor=none;fillColor=default;align=center;verticalAlign=middle;whiteSpace=wrap;rounded=0;strokeWidth=4;fontFamily=Helvetica;fontSize=22;fontColor=#616161;fontStyle=1;spacingTop=0;spacing=2;" parent="X2ivvi31KN47xsV-MIe9-1" vertex="1">
          <mxGeometry x="132" y="441.3699999999999" width="290" height="36" as="geometry" />
        </mxCell>
        <mxCell id="_Rghln-YgF1-al7HNQhC-40" value="&lt;i style=&quot;font-size: 20px;&quot;&gt;&lt;font color=&quot;#465e75&quot;&gt;Upgrades&lt;/font&gt;&lt;/i&gt;" style="text;html=1;strokeColor=none;fillColor=default;align=center;verticalAlign=middle;whiteSpace=wrap;rounded=0;strokeWidth=4;fontFamily=Helvetica;fontSize=22;fontColor=#616161;fontStyle=1;spacingTop=0;spacing=2;" parent="X2ivvi31KN47xsV-MIe9-1" vertex="1">
          <mxGeometry x="146" y="820" width="155" height="36" as="geometry" />
        </mxCell>
        <mxCell id="_Rghln-YgF1-al7HNQhC-41" value="" style="ellipse;whiteSpace=wrap;html=1;strokeColor=#000000;strokeWidth=2;fontFamily=Helvetica;fontSize=18;fontColor=#616161;fillColor=#FFCC99;" parent="X2ivvi31KN47xsV-MIe9-1" vertex="1">
          <mxGeometry x="176" y="735" width="20" height="20" as="geometry" />
        </mxCell>
        <mxCell id="_Rghln-YgF1-al7HNQhC-42" value="develop" style="text;html=1;strokeColor=none;fillColor=none;align=center;verticalAlign=middle;whiteSpace=wrap;rounded=0;strokeWidth=2;fontFamily=Comic Sans MS;fontSize=18;fontColor=#616161;" parent="X2ivvi31KN47xsV-MIe9-1" vertex="1">
          <mxGeometry x="203.25" y="730" width="69.5" height="30" as="geometry" />
        </mxCell>
        <mxCell id="_Rghln-YgF1-al7HNQhC-43" value="" style="endArrow=none;html=1;rounded=1;strokeColor=#FF3333;strokeWidth=12;" parent="X2ivvi31KN47xsV-MIe9-1" edge="1">
          <mxGeometry width="50" height="50" relative="1" as="geometry">
            <mxPoint x="690" y="350" as="sourcePoint" />
            <mxPoint x="920" y="150" as="targetPoint" />
          </mxGeometry>
        </mxCell>
        <mxCell id="_Rghln-YgF1-al7HNQhC-44" value="" style="endArrow=none;html=1;rounded=1;strokeColor=#FF3333;strokeWidth=12;" parent="X2ivvi31KN47xsV-MIe9-1" edge="1">
          <mxGeometry width="50" height="50" relative="1" as="geometry">
            <mxPoint x="707" y="164.99999999999977" as="sourcePoint" />
            <mxPoint x="907" y="335" as="targetPoint" />
          </mxGeometry>
        </mxCell>
      </root>
    </mxGraphModel>
  </diagram>
  <diagram id="WRWkiVKZTGJ92q58Bdlk" name="The BIG RESET">
    <mxGraphModel dx="1554" dy="-1391" grid="1" gridSize="10" guides="1" tooltips="1" connect="1" arrows="1" fold="1" page="1" pageScale="1" pageWidth="850" pageHeight="1100" math="0" shadow="0">
      <root>
        <mxCell id="0" />
        <mxCell id="1" parent="0" />
        <mxCell id="XDN8CZRTRxyn9oZ6crh9-1" value="&lt;b&gt;The BIG RESET&lt;br&gt;&lt;/b&gt;&lt;br&gt;&lt;b&gt;Problem Statement: &lt;/b&gt;We have performed customizations to Elentra by making a copy (not a fork) of the ElentraProject/elentra-1x-me repository. This has resulted in our repository significantly diverging from Elentra core. As a result, whenever Elentra core releases a new version, the upgrade needs to be performed manually.&amp;nbsp;&lt;br&gt;&lt;br&gt;Additionally, we&#39;ve gotten into the habit of developing in our own repository and we don&#39;t contribute back to Elentra. As a result, we&#39;re not able to cement our position as a strong contributor to our community.&lt;br&gt;&lt;br&gt;&lt;b&gt;Background:&lt;/b&gt; In the past, with Knowledge4U, we would request them to make changes and they would do so. This was because K4U had a separate installation for our code and they just charged us to make changes.&lt;br&gt;&lt;br&gt;However, with a community-driver development approach of Elentra, we should be a more responsible citizen of the platform and make all changes in an extensible manner, contributing them back to the core platform. This will ensure that other medical schools are able to take advantage of our work.&lt;br&gt;&lt;br&gt;&lt;b&gt;Solution:&lt;/b&gt;&amp;nbsp;We need to start by going back to using Elentra core and determining the extent of customizations made so far. That determination can be made by:&lt;br&gt;1. Performing a code comparison; OR&lt;br&gt;2. Performing a feature comparison in the application; OR&lt;br&gt;3. A mix of the two approaches above in order divide-and-conquer. Mixing the two approaches will also provide a method of verification in case we&#39;re not sure whether a customization is truly our own or if it comes in from Elentra Core.&lt;br&gt;&amp;nbsp;&lt;br&gt;&lt;b&gt;Next Steps:&lt;br&gt;&lt;/b&gt;1. Discuss &quot;The BIG RESET&quot; with our product partners and get their buy-in.&lt;br&gt;2. Pause all new intent development&lt;br&gt;3. Perform customization analysis, categorizing each customization in one of the 3 buckets:&lt;br&gt;&lt;span style=&quot;white-space: pre;&quot;&gt; &lt;/span&gt;a. &lt;b&gt;Contribute back to the Consortium code&lt;/b&gt; (e.g. Selectives, MSPR). Completely newly built features would be the best candidate for this bucket.&lt;br&gt;&lt;b&gt;&amp;nbsp; &amp;nbsp; &amp;nbsp; &amp;nbsp; &lt;/b&gt;b.&lt;b&gt; Modify to be done in an extensible manner&lt;/b&gt; (i.e. ensure we&#39;re just filling in placeholders instead of making direct change), and then contribute back to Consortium. Examples of this might be column additions to reports.&lt;br&gt;&amp;nbsp; &amp;nbsp; &amp;nbsp; &amp;nbsp; c.&amp;nbsp;&lt;b&gt;Discard&lt;/b&gt;&amp;nbsp;- These would be &quot;customizations&quot; that modified the Elentra core code in a non-extensible manner. Changing these to be done in an extensible manner would not be a good value proposition and thus would need to be discarded aka reset back to Elentra core behaviour.&lt;br&gt;4. Create stories to apply each of the buckets above to the customizations.&lt;br&gt;5. Switch to Elentra core and start applying the customizations.&lt;br&gt;&lt;br&gt;&lt;b&gt;Additional Benefits:&lt;br&gt;&lt;/b&gt;1. As we make customizations, we haven&#39;t been documenting our changes. By staying truer to Elentra consortium code, we would be eliminating confusion since their documentation stays up-to-date (at least as per the Consortium).&lt;br&gt;2.&amp;nbsp;" style="text;html=1;strokeColor=none;fillColor=none;align=left;verticalAlign=top;whiteSpace=wrap;rounded=0;fontSize=15;" parent="1" vertex="1">
          <mxGeometry x="80" y="2230" width="1034.25" height="830" as="geometry" />
        </mxCell>
      </root>
    </mxGraphModel>
  </diagram>
</mxfile>
